<svg width="24" height="24" viewBox="0 0 24 24" xmlns="http://www.w3.org/2000/svg">
  <path d="M10.707,8.707C10.889,8.519 10.99,8.266 10.988,8.004C10.985,7.742 10.88,7.491 10.695,7.306C10.509,7.12 10.259,7.015 9.996,7.013C9.734,7.01 9.482,7.111 9.293,7.293L5.293,11.293C5.106,11.481 5,11.735 5,12C5,12.266 5.106,12.52 5.293,12.707L9.293,16.707C9.482,16.89 9.734,16.99 9.996,16.988C10.259,16.986 10.509,16.881 10.695,16.695C10.88,16.51 10.985,16.259 10.988,15.997C10.99,15.735 10.889,15.482 10.707,15.293L8.414,13H18C18.265,13 18.52,12.895 18.707,12.708C18.895,12.52 19,12.266 19,12C19,11.735 18.895,11.481 18.707,11.293C18.52,11.106 18.265,11 18,11H8.414L10.707,8.707Z" fill="#000000" />
</svg>