<svg width="24" height="24" viewBox="0 0 24 24" xmlns="http://www.w3.org/2000/svg">
  <path d="M12,17C11.745,16.999 11.493,16.941 11.263,16.83C11.033,16.719 10.83,16.559 10.67,16.36L6.46,11.26C6.214,10.953 6.059,10.583 6.013,10.192C5.967,9.802 6.032,9.406 6.2,9.05C6.336,8.741 6.559,8.477 6.841,8.291C7.123,8.105 7.452,8.004 7.79,8H16.21C16.548,8.004 16.877,8.105 17.159,8.291C17.441,8.477 17.664,8.741 17.8,9.05C17.968,9.406 18.033,9.802 17.987,10.192C17.941,10.583 17.786,10.953 17.54,11.26L13.33,16.36C13.17,16.559 12.967,16.719 12.737,16.83C12.507,16.941 12.255,16.999 12,17Z" fill="#000000" />
</svg>