<svg width="24" height="24" viewBox="0 0 24 24" xmlns="http://www.w3.org/2000/svg">
  <path d="M13,6C13,5.735 12.895,5.48 12.707,5.293C12.519,5.105 12.265,5 12,5C11.735,5 11.48,5.105 11.293,5.293C11.105,5.48 11,5.735 11,6V15.586L8.707,13.293C8.518,13.111 8.266,13.01 8.004,13.012C7.741,13.015 7.491,13.12 7.305,13.305C7.12,13.491 7.015,13.741 7.012,14.004C7.01,14.266 7.111,14.518 7.293,14.707L11.293,18.707C11.48,18.895 11.735,19 12,19C12.265,19 12.519,18.895 12.707,18.707L16.707,14.707C16.889,14.518 16.99,14.266 16.988,14.004C16.985,13.741 16.88,13.491 16.695,13.305C16.509,13.12 16.258,13.015 15.996,13.012C15.734,13.01 15.481,13.111 15.293,13.293L13,15.586V6Z" fill="#000000" />
</svg>