<svg width="24" height="24" viewBox="0 0 24 24" xmlns="http://www.w3.org/2000/svg">
  <path d="M16.21,16H7.79C7.458,16.001 7.132,15.907 6.85,15.73C6.569,15.553 6.343,15.3 6.2,15C6.032,14.645 5.967,14.249 6.013,13.858C6.059,13.467 6.214,13.097 6.46,12.79L10.67,7.69C10.835,7.5 11.039,7.347 11.269,7.242C11.498,7.137 11.748,7.083 12,7.083C12.252,7.083 12.502,7.137 12.731,7.242C12.96,7.347 13.165,7.5 13.33,7.69L17.54,12.79C17.786,13.097 17.941,13.467 17.987,13.858C18.033,14.249 17.968,14.645 17.8,15C17.656,15.3 17.431,15.553 17.149,15.73C16.868,15.907 16.542,16.001 16.21,16Z" fill="#000000" />
</svg>