<svg width="24" height="24" viewBox="0 0 24 24" xmlns="http://www.w3.org/2000/svg">
  <path d="M12.707,5.293C12.519,5.105 12.265,5 12,5C11.735,5 11.48,5.105 11.293,5.293L7.293,9.293C7.111,9.481 7.01,9.734 7.012,9.996C7.015,10.258 7.12,10.509 7.305,10.695C7.491,10.88 7.741,10.985 8.004,10.988C8.266,10.99 8.518,10.889 8.707,10.707L11,8.414V18C11,18.265 11.105,18.519 11.293,18.707C11.48,18.894 11.735,19 12,19C12.265,19 12.519,18.894 12.707,18.707C12.895,18.519 13,18.265 13,18V8.414L15.293,10.707C15.481,10.889 15.734,10.99 15.996,10.988C16.258,10.985 16.509,10.88 16.695,10.695C16.88,10.509 16.985,10.258 16.988,9.996C16.99,9.734 16.889,9.481 16.707,9.293L12.707,5.293Z" fill="#000000" />
</svg>