<svg width="24" height="24" viewBox="0 0 24 24" xmlns="http://www.w3.org/2000/svg">
  <path d="M14.707,7.293C14.615,7.197 14.504,7.121 14.382,7.068C14.26,7.016 14.129,6.989 13.996,6.987C13.864,6.986 13.732,7.011 13.609,7.062C13.486,7.112 13.375,7.186 13.281,7.28C13.187,7.374 13.113,7.486 13.062,7.609C13.012,7.732 12.987,7.863 12.988,7.996C12.989,8.129 13.017,8.26 13.069,8.382C13.121,8.504 13.198,8.614 13.293,8.707L15.586,11H6C5.735,11 5.48,11.105 5.293,11.292C5.105,11.48 5,11.734 5,12C5,12.265 5.105,12.519 5.293,12.707C5.48,12.894 5.735,13 6,13H15.586L13.293,15.293C13.111,15.481 13.01,15.734 13.012,15.996C13.015,16.258 13.12,16.509 13.305,16.694C13.491,16.88 13.741,16.985 14.004,16.987C14.266,16.99 14.518,16.889 14.707,16.707L18.707,12.707C18.895,12.519 19,12.265 19,12C19,11.734 18.895,11.48 18.707,11.293L14.707,7.293Z" fill="#000000" />
</svg>