<svg width="24" height="24" viewBox="0 0 24 24" xmlns="http://www.w3.org/2000/svg">
  <path d="M15.744,9.674L14.7,9.082L11.484,14.751L12.528,15.342L15.744,9.674Z" fill="currentColor" />
  <path d="M5.828,19.704L8.4,21L11.263,19.874L14.4,21L16.954,19.789L18.3,20.638C18.284,19.434 17.953,18.255 17.34,17.219C16.727,16.182 15.853,15.324 14.806,14.729C13.212,13.827 11.326,13.594 9.561,14.081C7.797,14.568 6.297,15.735 5.392,17.326C4.761,18.428 4.454,19.685 4.505,20.954L5.828,19.691V19.704Z" fill="currentColor" />
  <path d="M17.045,17.693C16.651,17.693 16.313,17.945 16.19,18.314C15.52,20.357 12.914,20.326 12.251,18.417C12.189,18.24 12.074,18.087 11.922,17.978C11.769,17.87 11.586,17.812 11.399,17.812C11.213,17.812 11.032,17.871 10.881,17.979C10.73,18.088 10.617,18.241 10.558,18.417V18.418C9.904,20.326 7.298,20.371 6.617,18.338C6.556,18.154 6.437,17.995 6.277,17.885C6.117,17.775 5.926,17.72 5.732,17.729C5.317,17.732 4.994,18.046 4.892,18.398L4.89,18.41C4.705,19.172 4.369,19.55 4.008,19.765C3.624,19.999 3.092,20.102 2.476,20.113C2.239,20.114 2.013,20.208 1.846,20.376C1.679,20.544 1.586,20.77 1.585,21.007C1.585,21.493 1.993,21.899 2.478,21.899C3.268,21.899 4.158,21.765 4.934,21.299C5.285,21.09 5.594,20.817 5.861,20.482C7.376,22.043 9.941,22.03 11.412,20.431C12.914,22.055 15.554,22.021 17.045,20.357C17.459,20.825 17.967,21.199 18.535,21.457C19.104,21.715 19.721,21.849 20.345,21.853C20.581,21.852 20.808,21.758 20.975,21.59C21.143,21.423 21.237,21.196 21.238,20.96C21.236,20.723 21.141,20.497 20.974,20.329C20.807,20.162 20.58,20.067 20.344,20.066C19.29,20.066 18.248,19.382 17.9,18.315C17.842,18.135 17.728,17.977 17.574,17.866C17.421,17.754 17.235,17.694 17.045,17.693Z" fill="currentColor" />
  <path d="M19.805,12.446C19.943,12.524 20.106,12.545 20.259,12.503C20.412,12.461 20.542,12.36 20.621,12.223L20.834,11.851C22.531,8.863 21.546,5.101 18.545,3.393C15.544,1.686 11.724,2.728 10.027,5.718L9.817,6.085C9.778,6.153 9.752,6.229 9.742,6.308C9.732,6.386 9.738,6.466 9.759,6.542C9.78,6.618 9.815,6.69 9.864,6.752C9.912,6.814 9.973,6.867 10.042,6.906L19.805,12.446Z" fill="currentColor" />
  <path d="M18.791,3.549C17.395,4.002 14.698,5.907 13.196,8.706L17.245,10.998C18.874,8.272 19.118,4.979 18.791,3.549Z" fill="currentColor" />
</svg>