<svg width="24" height="24" viewBox="0 0 24 24" xmlns="http://www.w3.org/2000/svg">
  <path d="M13.5,3.5H10.5C9.65,3.5 9,4.15 9,5V6.5H10V5C10,4.7 10.2,4.5 10.5,4.5H13.5C13.8,4.5 14,4.7 14,5V6.5H15V5C15,4.15 14.35,3.5 13.5,3.5Z" fill="#424242" />
  <path d="M20,21.5H4C2.9,21.5 2,20.6 2,19.5V7.5C2,6.4 2.9,5.5 4,5.5H20C21.1,5.5 22,6.4 22,7.5V19.5C22,20.6 21.1,21.5 20,21.5Z" fill="#E65100" />
  <path d="M20,14H4C2.9,14 2,13.1 2,12V7.5C2,6.4 2.9,5.5 4,5.5H20C21.1,5.5 22,6.4 22,7.5V12C22,13.1 21.1,14 20,14Z" fill="#FF6E40" />
  <path d="M13,13H11C10.7,13 10.5,12.8 10.5,12.5V11.5C10.5,11.2 10.7,11 11,11H13C13.3,11 13.5,11.2 13.5,11.5V12.5C13.5,12.8 13.3,13 13,13Z" fill="#FFF3E0" />
</svg>