<svg width="24" height="24" viewBox="0 0 24 24" xmlns="http://www.w3.org/2000/svg">
  <path d="M14.5,19.982C16.073,19.942 17.177,19.815 18,19.415V21C18,21.265 17.895,21.52 17.707,21.707C17.52,21.895 17.265,22 17,22H15.5C15.235,22 14.98,21.895 14.793,21.707C14.605,21.52 14.5,21.265 14.5,21V19.982ZM6,19.415C6.823,19.815 7.927,19.942 9.5,19.982V21C9.5,21.265 9.395,21.52 9.207,21.707C9.02,21.895 8.765,22 8.5,22H7C6.735,22 6.48,21.895 6.293,21.707C6.105,21.52 6,21.265 6,21V19.415Z" fill="#000000" />
  <path d="M5.172,3.172C6.343,2 8.229,2 12,2C15.771,2 17.657,2 18.828,3.172C19.892,4.235 19.99,5.886 20,9V13C19.99,16.114 19.892,17.765 18.828,18.828C18.587,19.069 18.307,19.268 18,19.415C17.177,19.815 16.073,19.942 14.5,19.982C13.773,20 12.946,20 12,20C11.054,20 10.227,20 9.5,19.982C7.927,19.942 6.823,19.815 6,19.415C5.693,19.268 5.413,19.069 5.172,18.828C4.108,17.765 4.009,16.114 4,13V9C4.01,5.886 4.108,4.235 5.172,3.172Z" fill="#000000" fill-rule="evenodd" />
  <path d="M17.75,16C17.75,15.801 17.671,15.61 17.53,15.47C17.39,15.329 17.199,15.25 17,15.25H15.5C15.301,15.25 15.11,15.329 14.97,15.47C14.829,15.61 14.75,15.801 14.75,16C14.75,16.199 14.829,16.39 14.97,16.53C15.11,16.671 15.301,16.75 15.5,16.75H17C17.199,16.75 17.39,16.671 17.53,16.53C17.671,16.39 17.75,16.199 17.75,16ZM6.25,16C6.25,15.801 6.329,15.61 6.47,15.47C6.61,15.329 6.801,15.25 7,15.25H8.5C8.699,15.25 8.89,15.329 9.03,15.47C9.171,15.61 9.25,15.801 9.25,16C9.25,16.199 9.171,16.39 9.03,16.53C8.89,16.671 8.699,16.75 8.5,16.75H7C6.801,16.75 6.61,16.671 6.47,16.53C6.329,16.39 6.25,16.199 6.25,16ZM5.5,9.5C5.5,10.914 5.5,11.621 5.94,12.06C6.379,12.5 7.086,12.5 8.5,12.5H15.5C16.914,12.5 17.621,12.5 18.06,12.06C18.5,11.621 18.5,10.914 18.5,9.5V7C18.5,5.586 18.5,4.879 18.06,4.44C17.622,4 16.915,4 15.5,4H8.5C7.086,4 6.379,4 5.94,4.44C5.5,4.878 5.5,5.585 5.5,7V9.5ZM2.4,11.8L4,13V9H3C2.735,9 2.48,9.105 2.293,9.293C2.105,9.48 2,9.735 2,10V11C2,11.155 2.036,11.308 2.106,11.447C2.175,11.586 2.276,11.707 2.4,11.8ZM21,9H19.999L20,13L21.6,11.8C21.724,11.707 21.825,11.586 21.894,11.447C21.964,11.308 22,11.155 22,11V10C22,9.735 21.895,9.48 21.707,9.293C21.52,9.105 21.265,9 21,9Z" fill="#000000" />
</svg>