<svg width="24" height="24" viewBox="0 0 24 24" xmlns="http://www.w3.org/2000/svg">
  <path d="M13.5,6C14.761,6 16.002,6.317 17.108,6.924C18.214,7.53 19.149,8.406 19.827,9.469C20.505,10.533 20.903,11.75 20.986,13.009C21.069,14.267 20.833,15.526 20.299,16.67L20.985,20.103C21.009,20.224 21.003,20.349 20.967,20.467C20.931,20.585 20.867,20.692 20.78,20.78C20.693,20.867 20.585,20.931 20.467,20.967C20.349,21.003 20.224,21.009 20.103,20.985L16.671,20.299C15.653,20.773 14.543,21.012 13.42,21C12.298,20.987 11.193,20.722 10.187,20.226C9.18,19.729 8.298,19.013 7.606,18.13C6.913,17.247 6.427,16.219 6.184,15.124C5.941,14.028 5.947,12.892 6.202,11.799C6.456,10.706 6.953,9.684 7.655,8.808C8.357,7.933 9.247,7.226 10.258,6.74C11.27,6.254 12.378,6.001 13.5,6Z" fill="currentColor" />
  <path d="M10.5,3C9.239,3 7.998,3.317 6.892,3.924C5.786,4.53 4.851,5.406 4.173,6.469C3.495,7.533 3.096,8.75 3.014,10.009C2.931,11.267 3.167,12.526 3.7,13.67L3.015,17.103C2.991,17.224 2.997,17.349 3.033,17.467C3.069,17.585 3.133,17.692 3.22,17.78C3.307,17.867 3.415,17.931 3.533,17.967C3.651,18.003 3.776,18.009 3.897,17.985L7.329,17.299C8.346,17.773 9.457,18.012 10.58,18C11.702,17.987 12.807,17.722 13.813,17.226C14.82,16.729 15.702,16.013 16.395,15.13C17.087,14.247 17.573,13.219 17.816,12.124C18.059,11.028 18.053,9.892 17.798,8.799C17.544,7.706 17.047,6.684 16.345,5.808C15.643,4.933 14.753,4.226 13.742,3.74C12.73,3.254 11.622,3.001 10.5,3Z" fill="currentColor" />
</svg>