<svg width="24" height="24" viewBox="0 0 24 24" xmlns="http://www.w3.org/2000/svg">
  <g>
  <path d="M2.473,10.012C2.453,10.012 2.433,10.008 2.414,10C2.396,9.992 2.379,9.981 2.365,9.967C2.351,9.953 2.34,9.936 2.332,9.918C2.324,9.899 2.321,9.88 2.321,9.86V7.647C2.321,7.627 2.324,7.607 2.332,7.589C2.34,7.57 2.351,7.554 2.365,7.54C2.379,7.526 2.396,7.514 2.414,7.507C2.433,7.499 2.453,7.495 2.473,7.495C2.492,7.495 2.512,7.499 2.531,7.507C2.549,7.514 2.566,7.526 2.58,7.54C2.594,7.554 2.605,7.57 2.613,7.589C2.621,7.607 2.624,7.627 2.624,7.647V9.86C2.625,9.88 2.621,9.899 2.613,9.918C2.605,9.936 2.594,9.953 2.58,9.967C2.566,9.981 2.549,9.992 2.531,10C2.512,10.008 2.492,10.012 2.473,10.012ZM5.65,9.86V7.647C5.65,7.607 5.634,7.568 5.605,7.54C5.577,7.511 5.538,7.495 5.498,7.495C5.457,7.495 5.419,7.511 5.39,7.54C5.362,7.568 5.346,7.607 5.346,7.647V9.86C5.346,9.9 5.362,9.939 5.39,9.967C5.419,9.996 5.457,10.012 5.498,10.012C5.538,10.012 5.577,9.996 5.605,9.967C5.634,9.939 5.65,9.9 5.65,9.86Z" fill="#8E6049" />
  <path d="M2.094,7.509H5.876V8.892H2.094V7.509Z" fill="#F4580B" />
  <path d="M15.348,0.761H15.165C15.122,0.761 15.08,0.778 15.049,0.809C15.018,0.84 15,0.882 15,0.926V7.197C15,7.241 15.018,7.283 15.049,7.314C15.08,7.345 15.122,7.362 15.165,7.362H15.348C15.392,7.362 15.434,7.345 15.465,7.314C15.496,7.283 15.513,7.241 15.513,7.197V0.926C15.513,0.882 15.496,0.84 15.465,0.809C15.434,0.778 15.392,0.761 15.348,0.761ZM7.262,9.692H0.76C0.734,9.692 0.708,9.697 0.685,9.707C0.661,9.717 0.639,9.731 0.621,9.75C0.602,9.768 0.588,9.79 0.578,9.814C0.568,9.838 0.563,9.863 0.563,9.889V23.537C0.563,23.563 0.568,23.589 0.578,23.613C0.588,23.636 0.602,23.658 0.621,23.677C0.639,23.695 0.661,23.709 0.685,23.719C0.708,23.729 0.734,23.734 0.76,23.734H7.262C7.288,23.734 7.313,23.729 7.337,23.719C7.361,23.709 7.383,23.695 7.401,23.677C7.419,23.658 7.434,23.636 7.444,23.613C7.454,23.589 7.459,23.563 7.459,23.537V9.889C7.459,9.863 7.454,9.838 7.444,9.814C7.434,9.79 7.419,9.768 7.401,9.75C7.383,9.731 7.361,9.717 7.337,9.707C7.313,9.697 7.288,9.692 7.262,9.692Z" fill="#597B91" />
  <path d="M1.82,17.246H1.411C1.38,17.246 1.352,17.234 1.33,17.212C1.309,17.191 1.297,17.162 1.297,17.132V15.877C1.297,15.846 1.309,15.818 1.33,15.796C1.352,15.775 1.38,15.763 1.411,15.763H1.82C1.85,15.763 1.878,15.775 1.9,15.796C1.921,15.818 1.933,15.846 1.933,15.877V17.132C1.933,17.162 1.921,17.191 1.9,17.212C1.878,17.234 1.85,17.246 1.82,17.246ZM3.131,17.132V15.877C3.131,15.846 3.119,15.818 3.098,15.796C3.076,15.775 3.048,15.763 3.017,15.763H2.608C2.578,15.763 2.549,15.775 2.528,15.796C2.507,15.818 2.495,15.846 2.495,15.877V17.132C2.495,17.162 2.507,17.191 2.528,17.212C2.549,17.234 2.578,17.246 2.608,17.246H3.017C3.048,17.246 3.076,17.234 3.098,17.212C3.119,17.191 3.131,17.162 3.131,17.132ZM4.329,17.132V15.877C4.329,15.846 4.317,15.818 4.295,15.796C4.274,15.775 4.245,15.763 4.215,15.763H3.806C3.776,15.763 3.747,15.775 3.726,15.796C3.705,15.818 3.693,15.846 3.693,15.877V17.132C3.693,17.162 3.705,17.191 3.726,17.212C3.747,17.234 3.776,17.246 3.806,17.246H4.215C4.245,17.246 4.274,17.234 4.295,17.212C4.317,17.191 4.329,17.162 4.329,17.132ZM5.527,17.132V15.877C5.527,15.846 5.515,15.818 5.493,15.796C5.472,15.775 5.443,15.763 5.413,15.763H5.004C4.974,15.763 4.945,15.775 4.924,15.796C4.903,15.818 4.891,15.846 4.891,15.877V17.132C4.891,17.162 4.903,17.191 4.924,17.212C4.945,17.234 4.974,17.246 5.004,17.246H5.413C5.443,17.246 5.472,17.234 5.493,17.212C5.515,17.191 5.527,17.162 5.527,17.132ZM6.724,17.132V15.877C6.724,15.846 6.712,15.818 6.691,15.796C6.67,15.775 6.641,15.763 6.611,15.763H6.202C6.172,15.763 6.143,15.775 6.122,15.796C6.101,15.818 6.089,15.846 6.089,15.877V17.132C6.089,17.162 6.101,17.191 6.122,17.212C6.143,17.234 6.172,17.246 6.202,17.246H6.611C6.641,17.246 6.67,17.234 6.691,17.212C6.712,17.191 6.724,17.162 6.724,17.132ZM1.933,12.947V11.691C1.933,11.661 1.921,11.633 1.9,11.611C1.879,11.59 1.85,11.578 1.82,11.578H1.411C1.38,11.578 1.352,11.59 1.33,11.611C1.309,11.633 1.297,11.661 1.297,11.691V12.947C1.297,12.977 1.309,13.006 1.33,13.028C1.352,13.049 1.38,13.061 1.411,13.061H1.82C1.85,13.061 1.879,13.049 1.9,13.028C1.921,13.006 1.933,12.977 1.933,12.947ZM3.131,12.947V11.691C3.131,11.661 3.119,11.633 3.098,11.611C3.076,11.59 3.048,11.578 3.017,11.578H2.608C2.578,11.578 2.549,11.59 2.528,11.611C2.507,11.633 2.495,11.661 2.495,11.691V12.947C2.495,12.977 2.507,13.006 2.528,13.028C2.549,13.049 2.578,13.061 2.608,13.061H3.017C3.048,13.061 3.076,13.049 3.098,13.028C3.119,13.006 3.131,12.977 3.131,12.947ZM4.329,12.947V11.691C4.329,11.661 4.317,11.633 4.295,11.611C4.274,11.59 4.245,11.578 4.215,11.578H3.806C3.776,11.578 3.747,11.59 3.726,11.611C3.705,11.633 3.693,11.661 3.693,11.691V12.947C3.693,12.977 3.705,13.006 3.726,13.028C3.747,13.049 3.776,13.061 3.806,13.061H4.215C4.245,13.061 4.274,13.049 4.295,13.028C4.317,13.006 4.329,12.977 4.329,12.947ZM5.527,12.947V11.691C5.527,11.661 5.515,11.633 5.493,11.611C5.472,11.59 5.443,11.578 5.413,11.578H5.004C4.974,11.578 4.945,11.59 4.924,11.611C4.903,11.633 4.891,11.661 4.891,11.691V12.947C4.891,12.977 4.903,13.006 4.924,13.028C4.945,13.049 4.974,13.061 5.004,13.061H5.413C5.443,13.061 5.472,13.049 5.493,13.028C5.515,13.006 5.527,12.977 5.527,12.947ZM6.724,12.947V11.691C6.724,11.661 6.712,11.633 6.691,11.611C6.67,11.59 6.641,11.578 6.611,11.578H6.202C6.172,11.578 6.143,11.59 6.122,11.611C6.101,11.633 6.089,11.661 6.089,11.691V12.947C6.089,12.977 6.101,13.006 6.122,13.028C6.143,13.049 6.172,13.061 6.202,13.061H6.611C6.641,13.061 6.67,13.049 6.691,13.028C6.712,13.006 6.724,12.977 6.724,12.947ZM1.933,19.465V18.209C1.933,18.179 1.921,18.15 1.9,18.129C1.879,18.108 1.85,18.096 1.82,18.096H1.411C1.38,18.096 1.352,18.108 1.33,18.129C1.309,18.15 1.297,18.179 1.297,18.209V19.465C1.297,19.495 1.309,19.524 1.33,19.545C1.352,19.567 1.38,19.579 1.411,19.579H1.82C1.85,19.579 1.879,19.567 1.9,19.545C1.921,19.524 1.933,19.495 1.933,19.465ZM3.131,19.465V18.209C3.131,18.179 3.119,18.15 3.098,18.129C3.076,18.108 3.048,18.096 3.017,18.096H2.608C2.578,18.096 2.549,18.108 2.528,18.129C2.507,18.15 2.495,18.179 2.495,18.209V19.465C2.495,19.495 2.507,19.524 2.528,19.545C2.549,19.567 2.578,19.579 2.608,19.579H3.017C3.048,19.579 3.076,19.567 3.098,19.545C3.119,19.524 3.131,19.495 3.131,19.465ZM4.329,19.465V18.209C4.329,18.179 4.317,18.15 4.295,18.129C4.274,18.108 4.245,18.096 4.215,18.096H3.806C3.776,18.096 3.747,18.108 3.726,18.129C3.705,18.15 3.693,18.179 3.693,18.209V19.465C3.693,19.495 3.705,19.524 3.726,19.545C3.747,19.567 3.776,19.579 3.806,19.579H4.215C4.245,19.579 4.274,19.567 4.295,19.545C4.317,19.524 4.329,19.495 4.329,19.465ZM5.527,19.465V18.209C5.527,18.179 5.515,18.15 5.493,18.129C5.472,18.108 5.443,18.096 5.413,18.096H5.004C4.974,18.096 4.945,18.108 4.924,18.129C4.903,18.15 4.891,18.179 4.891,18.209V19.465C4.891,19.495 4.903,19.524 4.924,19.545C4.945,19.567 4.974,19.579 5.004,19.579H5.413C5.443,19.579 5.472,19.567 5.493,19.545C5.515,19.524 5.527,19.495 5.527,19.465ZM6.724,19.465V18.209C6.724,18.179 6.712,18.15 6.691,18.129C6.67,18.108 6.641,18.096 6.611,18.096H6.202C6.172,18.096 6.143,18.108 6.122,18.129C6.101,18.15 6.089,18.179 6.089,18.209V19.465C6.089,19.495 6.101,19.524 6.122,19.545C6.143,19.567 6.172,19.579 6.202,19.579H6.611C6.641,19.579 6.67,19.567 6.691,19.545C6.712,19.524 6.724,19.495 6.724,19.465Z" fill="#B0E9FF" />
  <path d="M7.506,10.612H0.464C0.409,10.612 0.356,10.59 0.317,10.551C0.278,10.512 0.256,10.459 0.256,10.404V9.9C0.256,9.845 0.278,9.792 0.317,9.753C0.356,9.714 0.409,9.692 0.464,9.692H7.506C7.561,9.692 7.614,9.714 7.653,9.753C7.692,9.792 7.714,9.845 7.714,9.9V10.404C7.714,10.459 7.692,10.512 7.653,10.551C7.614,10.59 7.561,10.612 7.506,10.612ZM7.714,14.525V14.022C7.714,13.967 7.692,13.914 7.653,13.875C7.614,13.836 7.561,13.814 7.506,13.814H0.464C0.409,13.814 0.356,13.836 0.317,13.875C0.278,13.914 0.256,13.967 0.256,14.022V14.525C0.256,14.58 0.278,14.633 0.317,14.672C0.356,14.711 0.409,14.733 0.464,14.733H7.506C7.561,14.733 7.614,14.711 7.653,14.672C7.692,14.633 7.714,14.58 7.714,14.525ZM7.714,21.23V20.727C7.714,20.672 7.692,20.619 7.653,20.58C7.614,20.541 7.561,20.519 7.506,20.519H0.464C0.409,20.519 0.356,20.541 0.317,20.58C0.278,20.619 0.256,20.672 0.256,20.727V21.23C0.256,21.286 0.278,21.338 0.317,21.378C0.356,21.417 0.409,21.438 0.464,21.438H7.506C7.561,21.438 7.614,21.417 7.653,21.378C7.692,21.338 7.714,21.286 7.714,21.23Z" fill="#464A4C" />
  <path d="M15.528,3.452H14.985C14.715,3.452 14.496,3.671 14.496,3.941V6.059C14.496,6.329 14.715,6.548 14.985,6.548H15.528C15.798,6.548 16.017,6.329 16.017,6.059V3.941C16.017,3.671 15.798,3.452 15.528,3.452Z" fill="#AAA9A2" />
  <path d="M16.726,5.901H13.787C13.701,5.901 13.62,5.935 13.56,5.995C13.499,6.056 13.466,6.137 13.466,6.222V12.874C13.466,12.959 13.499,13.041 13.56,13.101C13.62,13.161 13.701,13.195 13.787,13.195H16.726C16.812,13.195 16.893,13.161 16.953,13.101C17.014,13.041 17.047,12.959 17.047,12.874V6.222C17.047,6.137 17.014,6.056 16.953,5.995C16.893,5.935 16.812,5.901 16.726,5.901Z" fill="#D1CFC3" />
  <path d="M18.359,9.548H17.368C17.431,9.469 17.465,9.37 17.465,9.269V7.303C17.465,7.053 17.262,6.85 17.012,6.85H16.508C16.258,6.85 16.055,7.053 16.055,7.303V9.269C16.055,9.374 16.091,9.471 16.151,9.548H14.362C14.425,9.469 14.459,9.37 14.459,9.269V7.303C14.459,7.053 14.256,6.85 14.005,6.85H13.502C13.251,6.85 13.048,7.053 13.048,7.303V9.269C13.048,9.374 13.085,9.471 13.145,9.548H12.154C12.104,9.548 12.057,9.568 12.021,9.603C11.986,9.639 11.966,9.687 11.966,9.736V23.673C11.966,23.723 11.986,23.771 12.021,23.806C12.057,23.841 12.104,23.861 12.154,23.861H18.359C18.409,23.861 18.457,23.841 18.492,23.806C18.527,23.771 18.547,23.723 18.547,23.673V9.736C18.547,9.687 18.527,9.639 18.492,9.603C18.457,9.568 18.409,9.548 18.359,9.548Z" fill="#AAA9A2" />
  <path d="M10.354,4.766C10.354,4.222 9.913,3.78 9.368,3.78C8.909,3.78 8.525,4.094 8.415,4.519C8.317,4.451 8.201,4.415 8.082,4.415C7.758,4.415 7.495,4.678 7.495,5.002C7.495,5.048 7.501,5.092 7.511,5.135C7.466,5.123 7.42,5.118 7.374,5.118C7.062,5.118 6.809,5.371 6.809,5.683C6.809,5.996 7.062,6.249 7.374,6.249H10.354C10.764,6.249 11.096,5.917 11.096,5.508C11.096,5.098 10.764,4.766 10.354,4.766Z" fill="#B1EAFE" />
  <path d="M6.512,4.09C7.127,4.09 7.625,3.591 7.625,2.976C7.625,2.361 7.127,1.862 6.512,1.862C5.897,1.862 5.398,2.361 5.398,2.976C5.398,3.591 5.897,4.09 6.512,4.09Z" fill="#FFCF53" />
  <path d="M22.597,1.988C22.539,1.988 22.484,1.996 22.43,2.009C22.442,1.957 22.449,1.903 22.449,1.847C22.449,1.452 22.129,1.131 21.733,1.131C21.583,1.131 21.444,1.177 21.329,1.256C21.194,0.739 20.724,0.356 20.164,0.356C19.5,0.356 18.961,0.895 18.961,1.559C18.462,1.559 18.057,1.964 18.057,2.464C18.057,2.963 18.462,3.368 18.961,3.368H22.597C22.978,3.368 23.287,3.059 23.287,2.678C23.287,2.297 22.978,1.988 22.597,1.988Z" fill="#B1EAFE" />
  <path d="M15.341,8.813H15.172C15.131,8.813 15.093,8.83 15.064,8.858C15.035,8.887 15.019,8.926 15.019,8.966V21.331C15.019,21.371 15.035,21.41 15.064,21.438C15.093,21.467 15.131,21.483 15.172,21.483H15.341C15.382,21.483 15.42,21.467 15.449,21.438C15.478,21.41 15.494,21.371 15.494,21.331V8.966C15.494,8.926 15.478,8.887 15.449,8.858C15.42,8.83 15.382,8.813 15.341,8.813Z" fill="#D1CFC3" />
  <path d="M22.877,15.392H17.583C17.541,15.392 17.5,15.408 17.47,15.439C17.44,15.469 17.423,15.509 17.423,15.552V23.701C17.423,23.743 17.44,23.784 17.47,23.814C17.5,23.844 17.541,23.861 17.583,23.861H22.877C22.92,23.861 22.96,23.844 22.99,23.814C23.02,23.784 23.037,23.743 23.037,23.701V15.552C23.037,15.509 23.02,15.469 22.99,15.439C22.96,15.408 22.92,15.392 22.877,15.392Z" fill="#00B89C" />
  <path d="M18.973,18.104H18.378C18.334,18.104 18.292,18.087 18.261,18.056C18.23,18.025 18.213,17.983 18.213,17.94V17.06C18.213,17.017 18.23,16.975 18.261,16.944C18.292,16.913 18.334,16.896 18.378,16.896H18.973C19.017,16.896 19.059,16.913 19.09,16.944C19.121,16.975 19.138,17.017 19.138,17.06V17.94C19.138,17.983 19.121,18.025 19.09,18.056C19.059,18.087 19.017,18.104 18.973,18.104ZM20.672,17.939V17.06C20.672,17.017 20.654,16.975 20.624,16.944C20.593,16.913 20.551,16.896 20.507,16.896H19.912C19.868,16.896 19.826,16.913 19.795,16.944C19.764,16.975 19.747,17.017 19.747,17.06V17.939C19.747,17.983 19.764,18.025 19.795,18.056C19.826,18.087 19.868,18.104 19.912,18.104H20.507C20.551,18.104 20.593,18.087 20.624,18.056C20.654,18.025 20.672,17.983 20.672,17.939ZM22.206,17.939V17.06C22.206,17.017 22.188,16.975 22.157,16.944C22.126,16.913 22.084,16.896 22.041,16.896H21.446C21.402,16.896 21.36,16.913 21.329,16.944C21.298,16.975 21.281,17.017 21.281,17.06V17.939C21.281,17.983 21.298,18.025 21.329,18.056C21.36,18.087 21.402,18.104 21.446,18.104H22.041C22.084,18.104 22.126,18.087 22.157,18.056C22.188,18.025 22.206,17.983 22.206,17.939ZM19.138,22.819V20.384C19.138,20.34 19.121,20.299 19.09,20.268C19.059,20.237 19.017,20.219 18.973,20.219H18.378C18.334,20.219 18.292,20.237 18.261,20.268C18.23,20.299 18.213,20.34 18.213,20.384V22.819C18.213,22.863 18.23,22.905 18.261,22.936C18.292,22.967 18.334,22.984 18.378,22.984H18.973C19.017,22.984 19.059,22.967 19.09,22.936C19.121,22.905 19.138,22.863 19.138,22.819ZM20.672,22.819V20.384C20.672,20.34 20.654,20.299 20.624,20.268C20.593,20.237 20.551,20.219 20.507,20.219H19.912C19.868,20.219 19.826,20.237 19.795,20.268C19.764,20.299 19.747,20.34 19.747,20.384V22.819C19.747,22.863 19.764,22.905 19.795,22.936C19.826,22.967 19.868,22.984 19.912,22.984H20.507C20.551,22.984 20.593,22.967 20.624,22.936C20.654,22.905 20.672,22.863 20.672,22.819ZM22.206,22.819V20.384C22.206,20.34 22.188,20.299 22.157,20.268C22.126,20.237 22.084,20.219 22.041,20.219H21.446C21.402,20.219 21.36,20.237 21.329,20.268C21.298,20.299 21.281,20.34 21.281,20.384V22.819C21.281,22.863 21.298,22.905 21.329,22.936C21.36,22.967 21.402,22.984 21.446,22.984H22.041C22.084,22.984 22.126,22.967 22.157,22.936C22.188,22.905 22.206,22.863 22.206,22.819Z" fill="#ffffff" />
  <path d="M23.076,16.14H17.343C17.298,16.14 17.255,16.122 17.223,16.09C17.191,16.059 17.174,16.016 17.174,15.971V15.561C17.174,15.516 17.191,15.473 17.223,15.441C17.255,15.41 17.298,15.392 17.343,15.392H23.076C23.121,15.392 23.164,15.41 23.196,15.441C23.227,15.473 23.245,15.516 23.245,15.561V15.971C23.245,16.016 23.227,16.059 23.196,16.09C23.164,16.122 23.121,16.14 23.076,16.14ZM23.245,19.326V18.916C23.245,18.871 23.227,18.828 23.196,18.797C23.164,18.765 23.121,18.747 23.076,18.747H17.343C17.298,18.747 17.255,18.765 17.223,18.797C17.191,18.828 17.174,18.871 17.174,18.916V19.326C17.174,19.371 17.191,19.414 17.223,19.446C17.255,19.478 17.298,19.496 17.343,19.496H23.076C23.121,19.496 23.164,19.478 23.196,19.446C23.227,19.414 23.245,19.371 23.245,19.326Z" fill="#597B91" />
  <path d="M14.278,16.861H8.656C8.638,16.861 8.62,16.865 8.603,16.872C8.586,16.879 8.57,16.889 8.557,16.903C8.544,16.916 8.534,16.931 8.527,16.948C8.519,16.965 8.516,16.983 8.516,17.002V23.633C8.516,23.651 8.519,23.67 8.527,23.687C8.534,23.704 8.544,23.719 8.557,23.732C8.57,23.745 8.586,23.755 8.603,23.763C8.62,23.77 8.638,23.773 8.656,23.773H14.278C14.316,23.773 14.351,23.758 14.378,23.732C14.404,23.706 14.419,23.67 14.419,23.633V17.002C14.419,16.983 14.415,16.965 14.408,16.948C14.401,16.931 14.391,16.916 14.378,16.903C14.365,16.889 14.349,16.879 14.332,16.872C14.315,16.865 14.297,16.861 14.278,16.861Z" fill="#FF473E" />
  <path d="M10.573,20.743H9.789C9.693,20.743 9.601,20.705 9.533,20.637C9.465,20.569 9.427,20.477 9.427,20.381V18.735C9.427,18.639 9.465,18.547 9.533,18.479C9.601,18.411 9.693,18.373 9.789,18.373H10.573C10.669,18.373 10.761,18.411 10.829,18.479C10.897,18.547 10.935,18.639 10.935,18.735V20.381C10.935,20.477 10.897,20.569 10.829,20.637C10.761,20.705 10.669,20.743 10.573,20.743Z" fill="#ffffff" />
  <path d="M11.608,21.52H13.318V23.771H11.608V21.52Z" fill="#597B91" />
  <path d="M11.418,21.954C11.264,21.954 11.154,21.809 11.189,21.659C11.322,21.079 11.842,20.646 12.463,20.646C13.083,20.646 13.603,21.079 13.737,21.659C13.772,21.809 13.661,21.954 13.507,21.954H11.418ZM8.609,17.002H14.326C14.381,17.002 14.431,16.966 14.448,16.913L14.681,16.222C14.687,16.203 14.689,16.182 14.686,16.162C14.683,16.142 14.675,16.122 14.663,16.106C14.651,16.089 14.635,16.075 14.617,16.066C14.599,16.057 14.579,16.052 14.558,16.052H8.376C8.356,16.052 8.336,16.057 8.317,16.066C8.299,16.075 8.283,16.089 8.271,16.106C8.259,16.122 8.251,16.142 8.248,16.162C8.245,16.182 8.247,16.203 8.254,16.222L8.486,16.913C8.495,16.939 8.511,16.962 8.533,16.977C8.555,16.993 8.582,17.002 8.609,17.002Z" fill="#2B3B47" />
  </g>
</svg>