<svg width="24" height="24" viewBox="0 0 24 24" xmlns="http://www.w3.org/2000/svg">
  <path d="M4.5,17.207V19C4.5,19.132 4.553,19.26 4.646,19.353C4.74,19.447 4.867,19.5 5,19.5H6.793C6.925,19.5 7.052,19.447 7.146,19.354L15.646,10.854L13.146,8.354L4.646,16.854C4.553,16.948 4.5,17.074 4.5,17.207ZM15.09,6.41L17.59,8.91L18.793,7.707C18.98,7.519 19.086,7.265 19.086,7C19.086,6.735 18.98,6.48 18.793,6.293L17.707,5.207C17.52,5.019 17.265,4.914 17,4.914C16.735,4.914 16.48,5.019 16.293,5.207L15.09,6.41Z" fill="#00000000" stroke="#000000" stroke-width="1" />
</svg>