<svg width="24" height="24" viewBox="0 0 24 24" xmlns="http://www.w3.org/2000/svg">
  <g>
  <path d="M14.533,19.234L14.633,18.267C14.633,16.167 12.933,14.434 10.8,14.434C8.7,14.434 6.967,16.134 6.967,18.267L7.067,19.234C6.567,19.3 6.167,19.7 6.167,20.234C6.167,20.8 6.633,21.234 7.167,21.234H7.333C7.733,22.767 9.133,23.867 10.8,23.867C12.467,23.867 13.833,22.734 14.267,21.234H14.433C15,21.234 15.433,20.767 15.433,20.234C15.467,19.734 15.067,19.3 14.533,19.234Z" fill="#EDC0A2" />
  <path d="M9.9,7.1L9.933,6.933C9.933,4.4 7.867,2.333 5.333,2.333C2.8,2.333 0.767,4.4 0.767,6.933L0.8,7.1C0.333,7.166 0,7.566 0,8.033C0,8.566 0.433,9 0.967,9H1L1.033,9.333C1.033,11.7 2.967,13.633 5.333,13.633C7.7,13.633 9.633,11.7 9.633,9.333L9.667,8.966H9.733C10.267,8.966 10.7,8.533 10.7,8C10.7,7.566 10.367,7.166 9.9,7.1Z" fill="#E2AF8D" />
  <path d="M23,8.933H22.867L23,6.766C23,4.333 20.9,3.1 18.467,3.1C16.033,3.1 14.2,4.366 14.2,6.766L14.333,8.933H14.2C13.633,8.933 13.2,9.4 13.2,9.933C13.2,10.5 13.667,10.933 14.2,10.933C14.3,10.933 14.4,10.9 14.467,10.9C14.533,13.133 16.333,14.9 18.567,14.9C20.8,14.9 22.633,13.1 22.667,10.9C22.767,10.933 22.833,10.933 22.933,10.933C23.5,10.933 23.933,10.466 23.933,9.933C24,9.4 23.533,8.933 23,8.933Z" fill="#FFD3B6" />
  <path d="M10.833,21.067C10.567,21.067 10.333,20.933 10.2,20.733C10.167,20.667 10.167,20.567 10.233,20.533C10.3,20.5 10.4,20.5 10.434,20.567C10.5,20.7 10.634,20.767 10.8,20.767C10.967,20.767 11.1,20.7 11.167,20.567C11.2,20.5 11.3,20.467 11.367,20.533C11.434,20.567 11.467,20.667 11.4,20.733C11.333,20.933 11.1,21.067 10.833,21.067Z" fill="#E5AB83" />
  <path d="M10.367,23.6C9.867,23.6 9.4,23.5 8.967,23.366C9.5,23.699 10.133,23.899 10.833,23.899C12.8,23.899 14.4,22.333 14.4,20.366C14,22.233 12.333,23.6 10.367,23.6Z" fill="#EDC0A2" />
  <path d="M4.967,13.2C4,13.2 3.067,12.901 2.3,12.401C3.067,13.167 4.133,13.667 5.333,13.667C7.7,13.667 9.633,11.734 9.633,9.367V9.134C9.333,11.434 7.367,13.2 4.967,13.2Z" fill="#CE8E63" />
  <path d="M3.167,6.6C3.167,6.6 3.1,6.566 3,6.566C2.9,6.533 2.733,6.533 2.6,6.533H2.4C2.367,6.533 2.333,6.533 2.333,6.566C2.3,6.566 2.3,6.566 2.267,6.6C2.233,6.6 2.233,6.633 2.233,6.633C2.233,6.633 2.2,6.633 2.2,6.666H2.067C1.967,6.7 1.867,6.666 1.833,6.6C1.8,6.533 1.833,6.433 1.867,6.4C1.867,6.4 1.9,6.4 1.933,6.366C1.967,6.366 1.967,6.333 2,6.3C2.033,6.3 2.067,6.266 2.1,6.233C2.167,6.2 2.233,6.166 2.333,6.166C2.4,6.166 2.5,6.133 2.6,6.133C2.767,6.1 2.933,6.1 3.067,6.133H3.3C3.433,6.133 3.533,6.266 3.533,6.4C3.533,6.533 3.4,6.633 3.267,6.633L3.167,6.6ZM7.433,6.1C7.3,6.1 7.2,6.233 7.2,6.366C7.2,6.5 7.333,6.6 7.467,6.6H7.5C7.5,6.6 7.567,6.566 7.667,6.566C7.767,6.533 7.933,6.533 8.067,6.533H8.267C8.3,6.533 8.333,6.533 8.333,6.566C8.367,6.566 8.367,6.566 8.4,6.6C8.433,6.6 8.433,6.633 8.433,6.633C8.433,6.633 8.467,6.633 8.467,6.666H8.5L8.567,6.7C8.633,6.733 8.733,6.7 8.767,6.666C8.833,6.6 8.8,6.466 8.733,6.433C8.733,6.433 8.7,6.433 8.667,6.4C8.633,6.4 8.633,6.366 8.6,6.333C8.567,6.333 8.533,6.3 8.5,6.266C8.433,6.233 8.367,6.2 8.267,6.2C8.2,6.2 8.1,6.166 8,6.166C7.833,6.133 7.667,6.133 7.533,6.166H7.367C7.467,6.1 7.433,6.1 7.433,6.1Z" fill="#8E6049" />
  <path d="M5.333,9.866C5.033,9.866 4.733,9.7 4.6,9.466C4.533,9.366 4.567,9.266 4.667,9.233C4.767,9.166 4.867,9.2 4.9,9.3C5,9.433 5.167,9.533 5.333,9.533C5.5,9.533 5.667,9.433 5.767,9.3C5.833,9.2 5.933,9.2 6,9.233C6.1,9.3 6.1,9.4 6.067,9.466C5.933,9.733 5.633,9.866 5.333,9.866ZM6.167,11.466C6.233,11.4 6.267,11.3 6.2,11.2C6.133,11.133 6.033,11.1 5.933,11.166C5.567,11.466 5.067,11.466 4.7,11.166C4.633,11.1 4.5,11.133 4.433,11.2C4.367,11.266 4.4,11.4 4.467,11.466C4.7,11.666 5,11.766 5.3,11.766C5.633,11.766 5.933,11.666 6.167,11.466Z" fill="#CE8E63" />
  <path d="M9.067,19.467V20.1C9.067,20.367 8.867,20.567 8.6,20.567C8.333,20.567 8.133,20.367 8.133,20.1V19.467C8.167,19.234 8.333,19.034 8.6,19.034C8.833,19.067 9.033,19.234 9.067,19.467ZM13.5,19.467C13.467,19.234 13.3,19.034 13.033,19.034C12.8,19.034 12.6,19.234 12.567,19.467V20.1C12.567,20.367 12.767,20.567 13.033,20.567C13.3,20.567 13.5,20.367 13.5,20.1V19.467ZM12.4,21.9C12.367,21.834 12.267,21.767 12.167,21.767H9.467C9.367,21.767 9.3,21.8 9.233,21.9C9.2,21.967 9.2,22.067 9.233,22.167C9.4,22.467 9.633,22.667 9.933,22.834C10.167,22.634 10.467,22.634 10.8,22.634C11.133,22.634 11.433,22.634 11.667,22.834C11.933,22.667 12.2,22.467 12.367,22.167C12.433,22.067 12.433,22 12.4,21.9ZM3.067,7.367C3.033,7.134 2.867,6.934 2.6,6.934C2.367,6.934 2.167,7.134 2.133,7.367V8C2.133,8.267 2.333,8.467 2.6,8.467C2.867,8.467 3.067,8.267 3.067,8V7.367ZM8.533,7.367C8.5,7.134 8.333,6.934 8.067,6.934C7.833,6.934 7.633,7.134 7.6,7.367V8C7.6,8.267 7.8,8.467 8.067,8.467C8.333,8.467 8.533,8.267 8.533,8V7.367ZM16.333,8.934C16.3,8.7 16.133,8.5 15.867,8.5C15.633,8.5 15.433,8.7 15.4,8.934V9.567C15.4,9.834 15.6,10.034 15.867,10.034C16.133,10.034 16.333,9.834 16.333,9.567V8.934ZM21.733,8.934C21.7,8.7 21.533,8.5 21.267,8.5C21.033,8.5 20.833,8.7 20.8,8.934V9.567C20.8,9.834 21,10.034 21.267,10.034C21.533,10.034 21.733,9.834 21.733,9.567V8.934Z" fill="#2B3B47" />
  <path d="M15.833,8.933V9.1C15.833,9.166 15.8,9.2 15.733,9.2C15.667,9.2 15.633,9.166 15.633,9.1V8.933C15.633,8.866 15.7,8.833 15.733,8.833C15.8,8.833 15.833,8.866 15.833,8.933ZM8.5,19.5C8.5,19.433 8.433,19.4 8.4,19.4C8.333,19.4 8.3,19.433 8.3,19.5V19.667C8.3,19.733 8.367,19.767 8.4,19.767C8.467,19.767 8.5,19.7 8.5,19.667V19.5ZM13,19.5C13,19.433 12.933,19.4 12.9,19.4C12.833,19.4 12.8,19.433 12.8,19.5V19.667C12.8,19.733 12.867,19.767 12.9,19.767C12.967,19.767 13,19.7 13,19.667V19.5ZM2.5,7.4C2.5,7.333 2.433,7.3 2.4,7.3C2.333,7.3 2.3,7.333 2.3,7.4V7.566C2.3,7.6 2.333,7.666 2.4,7.666C2.467,7.666 2.5,7.6 2.5,7.566V7.4ZM8,7.4C8,7.333 7.933,7.3 7.9,7.3C7.833,7.3 7.8,7.333 7.8,7.4V7.566C7.8,7.633 7.867,7.666 7.9,7.666C7.967,7.666 8,7.6 8,7.566V7.4ZM21.233,8.933C21.233,8.866 21.167,8.833 21.133,8.833C21.067,8.833 21.033,8.866 21.033,8.933V9.1C21.033,9.166 21.067,9.2 21.133,9.2C21.2,9.2 21.233,9.166 21.233,9.1V8.933Z" fill="#959DA3" />
  <path d="M18.233,14.534C17.3,14.534 16.433,14.234 15.7,13.767C16.433,14.5 17.467,14.967 18.6,14.967C20.867,14.967 22.733,13.134 22.733,10.834V10.634C22.4,12.834 20.533,14.534 18.233,14.534Z" fill="#EDC0A2" />
  <path d="M11.7,22.834C11.433,22.967 11.133,23.067 10.833,23.067C10.5,23.067 10.2,23 9.967,22.834C10.2,22.634 10.5,22.634 10.833,22.634C11.167,22.634 11.467,22.634 11.7,22.834ZM19.733,12.667C19.467,12.567 19.2,12.4 18.9,12.4C18.733,12.4 18.6,12.5 18.567,12.5C18.533,12.5 18.367,12.4 18.2,12.4C17.933,12.4 17.7,12.534 17.433,12.667C17.3,12.734 17.2,12.734 17.1,12.734C17.033,12.734 17,12.8 17.033,12.834C17.233,13.1 17.733,13.6 18.567,13.6C19.4,13.6 19.933,13.067 20.1,12.8C20.133,12.767 20.1,12.7 20.033,12.7C20,12.7 19.9,12.7 19.733,12.667Z" fill="#FF7DDA" />
  <path d="M18.6,11.533C18.3,11.533 18,11.366 17.833,11.133C17.767,11.033 17.8,10.933 17.9,10.866C18,10.8 18.1,10.833 18.167,10.933C18.267,11.066 18.433,11.166 18.6,11.166C18.767,11.166 18.933,11.066 19.033,10.933C19.1,10.833 19.2,10.833 19.3,10.866C19.4,10.933 19.4,11.033 19.367,11.133C19.2,11.366 18.9,11.533 18.6,11.533ZM20.633,7.8C20.567,7.833 20.533,7.933 20.6,8C20.633,8.066 20.733,8.1 20.8,8.033C20.8,8.033 20.833,8.033 20.833,8C20.867,7.966 20.9,7.933 20.967,7.933C21,7.9 21.067,7.9 21.133,7.866C21.167,7.866 21.2,7.866 21.233,7.833H21.433C21.467,7.833 21.5,7.866 21.533,7.866C21.6,7.866 21.633,7.933 21.7,7.966C21.733,7.966 21.733,8 21.767,8.033L21.8,8.066L21.833,8.1C21.867,8.133 21.9,8.133 21.933,8.1C21.967,8.066 21.967,8.033 21.967,8C21.967,8 21.967,7.966 21.933,7.933C21.933,7.933 21.9,7.9 21.9,7.866C21.867,7.833 21.867,7.8 21.833,7.8C21.767,7.766 21.7,7.7 21.633,7.666C21.6,7.666 21.567,7.633 21.5,7.6L21.367,7.566H21.1C21,7.566 20.933,7.6 20.867,7.633C20.8,7.666 20.767,7.7 20.7,7.7C20.667,7.766 20.633,7.766 20.633,7.8ZM16.4,8.033C16.467,8.066 16.567,8.066 16.6,7.966C16.633,7.9 16.633,7.8 16.533,7.766C16.533,7.766 16.5,7.766 16.467,7.733C16.433,7.7 16.367,7.666 16.3,7.666C16.167,7.633 15.967,7.6 15.8,7.6C15.6,7.633 15.433,7.7 15.333,7.833C15.267,7.866 15.233,7.933 15.233,7.966C15.2,8 15.2,8.033 15.2,8.033C15.167,8.066 15.2,8.133 15.233,8.133C15.267,8.166 15.333,8.133 15.333,8.1C15.333,8.1 15.367,8.033 15.467,7.966C15.567,7.9 15.7,7.833 15.833,7.833C15.967,7.833 16.133,7.866 16.233,7.9C16.3,7.933 16.3,7.933 16.333,7.966C16.367,8.033 16.4,8.033 16.4,8.033Z" fill="#E5AB83" />
  <path d="M12.767,14.266C12.567,14.166 11.7,13.9 11.5,13.866C11.3,13.833 11.067,13.833 10.833,13.833C8.1,13.833 6.9,15.9 6.9,17.466V19.433C7.433,19.433 7.733,19.033 7.933,17.866C8.067,16.933 9.233,15.933 9.233,15.933L10.567,16.8C10.667,16.866 10.8,16.8 10.8,16.666V16.433C11.3,16.666 12.3,17.133 12.667,17.2C12.933,17.233 13.533,17.266 13.8,17.966C14.133,18.866 14.2,19.3 14.733,19.3V17.466C14.767,16.333 14.133,14.933 12.767,14.266Z" fill="#8E6049" />
  <path d="M6.2,1H4.8C1.567,0.967 0.667,3.134 0.667,5.134V7.134C0.667,7.5 0.933,7.8 1.1,7.3C1.367,6.534 1.467,3.3 2.6,4.267C3.433,4.967 7.867,4.8 7.467,4.334C7.367,4.2 7.233,4.034 7.1,3.9C9.033,4.867 9.4,6.934 9.533,7.167C9.8,7.634 9.9,7.534 9.9,7.1V5.267C9.933,3.534 9.2,1.134 6.2,1Z" fill="#68442A" />
  <path d="M23.967,6.6C23.967,5.233 22.7,3.2 21,2.333C20.933,2.3 20.767,2.233 20.6,2.167V2.033C20.6,0.9 19.7,0 18.567,0C17.433,0 16.533,0.9 16.533,2.033V2.233C16.4,2.233 16.3,2.267 16.2,2.3C14.4,3.1 13.467,4.767 13.467,6.2C13.467,6.967 13.6,7.867 13.8,8.433V9.467C13.8,9.7 14.033,9.933 14.4,10.133L14.333,8.833C14.4,8.6 14.433,8.2 14.433,7.567C14.433,5.933 15.8,5.1 16.6,4.7C16.8,4.6 17.033,4.6 17.233,4.733C18.833,5.933 21.733,7.267 22.9,7.767L22.767,9.533C23.5,8.9 23.967,8 23.967,6.8C24,6.733 24,6.667 23.967,6.6Z" fill="#FF6F1F" />
  </g>
</svg>