<svg width="24" height="24" viewBox="0 0 24 24" xmlns="http://www.w3.org/2000/svg">
  <path d="M9.561,9.3H9.6V19.5H20.4V11.85L18.642,7.925L14.4,6.3L10.157,7.925L9.6,9.17V9.26C9.6,9.266 9.599,9.271 9.597,9.276C9.595,9.28 9.592,9.285 9.588,9.288C9.585,9.292 9.581,9.295 9.576,9.297C9.571,9.299 9.566,9.3 9.561,9.3Z" fill="#EB5757" fill-rule="evenodd" />
  <path d="M3.6,19.5H9.6V9.3H3.6V19.5Z" fill="#F2994A" />
  <path d="M9.561,9.3H3.637C3.632,9.3 3.627,9.299 3.622,9.297C3.618,9.295 3.614,9.293 3.61,9.289C3.607,9.286 3.604,9.282 3.602,9.277C3.601,9.273 3.6,9.268 3.6,9.263V7.573C3.6,6.758 3.924,5.976 4.5,5.4L4.551,5.348C5.095,4.805 5.831,4.5 6.6,4.5C7.368,4.5 8.105,4.805 8.648,5.348L8.7,5.4C9.276,5.976 9.6,6.758 9.6,7.573V9.261C9.6,9.266 9.599,9.271 9.597,9.276C9.595,9.28 9.592,9.285 9.589,9.288C9.585,9.292 9.581,9.295 9.576,9.297C9.571,9.299 9.566,9.3 9.561,9.3Z" fill="#F2C94C" />
  <path d="M12.6,16.2H16.2V19.5H12.6V16.2ZM13.5,11.4H15.3V13.2H13.5V11.4Z" fill="#F2F2F2" />
</svg>