<svg width="24" height="24" viewBox="0 0 24 24" xmlns="http://www.w3.org/2000/svg">
  <path d="M20,11.5C20,16.568 14.028,19.97 12.404,20.802C12.279,20.867 12.141,20.9 12,20.9C11.859,20.9 11.721,20.867 11.596,20.802C9.972,19.97 4,16.568 4,11.5C4,7 7.876,4 12,4C16.267,4 20,7 20,11.5Z" fill="#000000" />
  <path d="M8.286,11.786L11.743,15.243C11.864,15.364 11.925,15.425 12,15.425C12.075,15.425 12.136,15.365 12.257,15.243L15.714,11.786C16.462,11.038 16.578,9.866 15.991,8.986C15.076,7.615 13.037,7.685 12.219,9.116L12.078,9.364C12.07,9.378 12.059,9.389 12.045,9.397C12.031,9.405 12.016,9.409 12,9.409C11.984,9.409 11.969,9.405 11.955,9.397C11.941,9.389 11.93,9.378 11.922,9.364L11.781,9.117C10.963,7.685 8.924,7.615 8.009,8.987C7.422,9.867 7.539,11.038 8.286,11.786Z" fill="#000000" />
</svg>