<svg width="24" height="24" viewBox="0 0 24 24" xmlns="http://www.w3.org/2000/svg">
  <path d="M2.625,5.625C2.625,5.327 2.744,5.04 2.954,4.83C3.165,4.619 3.452,4.5 3.75,4.5H20.25C20.548,4.5 20.834,4.619 21.045,4.83C21.257,5.04 21.375,5.327 21.375,5.625C21.375,5.923 21.257,6.21 21.045,6.42C20.834,6.631 20.548,6.75 20.25,6.75H3.75C3.452,6.75 3.165,6.631 2.954,6.42C2.744,6.21 2.625,5.923 2.625,5.625ZM5.625,11.625C5.625,11.327 5.744,11.04 5.955,10.83C6.165,10.618 6.452,10.5 6.75,10.5H17.25C17.548,10.5 17.834,10.618 18.045,10.83C18.257,11.04 18.375,11.327 18.375,11.625C18.375,11.923 18.257,12.21 18.045,12.42C17.834,12.632 17.548,12.75 17.25,12.75H6.75C6.452,12.75 6.165,12.632 5.955,12.42C5.744,12.21 5.625,11.923 5.625,11.625ZM8.625,17.625C8.625,17.327 8.744,17.041 8.955,16.83C9.165,16.618 9.452,16.5 9.75,16.5H14.25C14.548,16.5 14.835,16.618 15.045,16.83C15.257,17.041 15.375,17.327 15.375,17.625C15.375,17.923 15.257,18.209 15.045,18.42C14.835,18.632 14.548,18.75 14.25,18.75H9.75C9.452,18.75 9.165,18.632 8.955,18.42C8.744,18.209 8.625,17.923 8.625,17.625Z" fill="#000000" />
</svg>