<svg width="24" height="24" viewBox="0 0 24 24" xmlns="http://www.w3.org/2000/svg">
  <path d="M2.396,5.576V3.853C2.58,3.639 3.112,3.201 4.427,3.073C4.776,3.039 5.113,3.022 5.43,3.022C6.682,3.022 8.214,3.141 8.833,3.651C9.169,3.928 9.442,4.146 9.546,4.311L6.654,6.585L2.396,5.576Z" fill="#263238" />
  <path d="M22.303,17.794C22.303,17.794 21.61,15.272 20.44,14.921C19.564,14.659 18.645,14.62 17.74,14.558C17.13,14.516 16.558,14.353 16.099,13.937C15.608,13.493 13.326,10.705 12.37,9.311C12.008,8.785 12.323,7.907 12.488,7.27C12.653,6.63 12.863,5.985 12.819,5.316C12.771,4.59 12.407,4.103 11.263,3.955C10.382,3.84 9.945,3.883 9.945,3.883C9.281,3.066 7.354,2.567 5.601,2.668C4.444,2.736 2.856,2.891 1.952,3.703C1.374,4.223 1.166,5.383 1.901,6.173C1.29,6.563 1.219,7.311 1.388,7.855C1.554,8.393 1.933,8.608 1.952,8.766C1.971,8.918 2.034,10.418 2.106,11.008C2.186,11.681 1.845,12.323 1.626,12.964C1.464,13.433 1.354,14.301 1.397,14.955C1.41,15.143 1.391,15.3 1.433,15.439C1.474,15.576 1.573,15.696 1.646,15.756C3.129,16.965 6.27,17.745 6.934,18.137C7.598,18.527 10.875,20.79 12.983,21.143C15.09,21.493 17.801,21.418 20.22,19.896C22.639,18.368 22.303,17.794 22.303,17.794ZM4.695,3.491C7.502,3.308 8.573,3.874 8.921,4.24C8.921,4.24 7.929,4.44 7.596,5.081C7.449,5.361 7.268,5.678 7.279,5.995C6.621,5.421 5.929,5.541 5.119,5.488C4.026,5.417 2.779,5.083 2.811,4.416C2.844,3.677 4.313,3.516 4.695,3.491Z" fill="#784D30" />
  <path d="M17.614,18.073C17.781,17.959 17.944,17.828 18.039,17.652C18.135,17.475 18.156,17.241 18.038,17.078C17.903,16.89 17.633,16.845 17.408,16.903C17.183,16.962 16.989,17.098 16.789,17.215C16.528,17.365 15.883,17.612 15.298,17.774C14.719,17.935 14.364,18.261 14.458,18.614C14.618,19.215 15.636,18.938 15.973,18.848C16.536,18.698 17.13,18.405 17.614,18.073ZM4.436,12.257C4.742,12.702 4.688,13.386 4.262,13.716C4.037,13.89 3.748,13.954 3.506,14.102C3.362,14.19 2.998,14.573 2.604,14.474C2.381,14.417 2.286,14.147 2.244,13.922C2.119,13.242 2.333,12.499 2.833,12C3.289,11.545 4.119,11.796 4.436,12.257Z" fill="#A06841" />
  <path d="M23.181,18.78C23.321,18.356 23.229,17.885 23.094,17.471C22.991,17.297 22.708,17.252 22.528,17.181C22.478,17.164 22.054,17.083 22.042,17.049C22.099,17.233 22.192,17.411 22.213,17.604C22.226,17.872 21.439,18.915 19.817,19.665C15.701,21.566 13.148,20.781 12.499,20.672C10.453,20.299 8.376,18.913 6.981,18.047C5.507,17.374 3.304,16.862 1.907,15.829C1.733,15.705 1.539,15.585 1.459,15.375C1.459,15.375 1.44,15.328 1.433,15.279C1.419,15.184 1.395,14.951 1.395,14.951C1.103,15.131 0.759,15.401 0.763,15.782L0.75,17.09C0.748,17.222 0.803,17.347 0.9,17.435C1.11,17.629 1.481,17.863 1.753,18.026C1.914,18.122 2.093,18.086 2.132,17.891C2.147,17.818 2.166,17.745 2.188,17.672C2.265,17.392 2.451,17.574 2.648,17.655C2.715,17.687 2.799,17.715 2.798,17.801V18.405C2.798,18.57 2.895,18.716 3.049,18.778C3.291,18.844 3.729,19.172 3.975,18.926C4.056,18.746 4.026,18.5 4.159,18.349C4.258,18.289 4.515,18.422 4.611,18.457C4.759,18.514 4.644,19.05 4.639,19.119C4.626,19.286 4.712,19.423 4.873,19.485L5.387,19.68C5.496,19.721 5.715,19.721 5.796,19.618C5.895,19.455 5.863,19.236 5.957,19.07C6.071,18.913 6.353,19.129 6.474,19.191C6.696,19.297 6.951,19.453 7.157,19.59C7.764,19.98 8.1,20.145 9.021,20.634C9.058,20.655 9.083,20.692 9.084,20.734L9.116,21.332C9.154,21.731 9.679,21.806 9.964,21.996C10.073,22.05 10.281,22.072 10.359,21.956C10.429,21.827 10.434,21.669 10.507,21.538C10.581,21.382 10.759,21.426 10.888,21.474C11.419,21.609 11.226,21.919 11.235,22.327C11.244,22.479 11.391,22.616 11.533,22.659C11.797,22.738 12.126,22.817 12.298,22.856C12.718,22.952 12.692,22.504 12.718,22.256C12.727,22.147 12.744,21.956 12.904,21.975C13.048,21.992 13.193,22.007 13.339,22.02C13.399,22.025 13.446,22.072 13.449,22.132L13.477,22.667C13.489,22.877 13.661,23.045 13.869,23.051C14.16,23.059 14.587,23.062 14.919,23.059C15.09,23.062 15.248,22.92 15.233,22.742C15.244,22.449 15.058,22.132 15.444,22.031C15.587,21.986 15.99,21.935 16.151,21.928C16.292,21.922 16.311,22.029 16.331,22.239C16.346,22.382 16.344,22.549 16.449,22.644C16.524,22.714 16.639,22.717 16.74,22.702C19.147,22.357 22.031,20.94 23.181,18.78Z" fill="#E2A610" />
  <path d="M8.289,9.467C8.788,10.187 11.856,9.519 12.853,9.986M9.154,11.383C9.51,11.923 12.688,10.897 13.783,11.199M10.326,13.009C10.766,13.519 13.318,12.144 14.767,12.42" fill="#00000000" stroke="#C62828" stroke-width="0.383375" />
  <path d="M11.683,14.344C12.007,14.963 14.567,13.32 15.988,13.924C16.151,13.993 16.316,14.093 16.155,14.166C15.007,14.685 13.487,15.923 12.934,15.529" fill="#00000000" stroke="#C62828" stroke-width="0.383375" />
  <path d="M12.623,15.418C12.712,14.175 13.843,13.093 14.766,12.42M11.304,14.163C11.304,13.087 13.228,11.471 13.783,11.199M9.941,12.785C10.382,11.572 11.807,10.563 12.851,9.984M8.946,10.974C9.643,9.926 11.137,9.221 12.214,8.876M8.338,8.981C9.255,7.946 10.941,7.676 12.313,7.839" fill="#00000000" stroke="#F44336" stroke-width="0.383375" />
  <path d="M7.414,6.557C7.609,7.378 7.609,8.273 7.575,9.103C8.482,8.323 8.522,7.015 8.486,5.901C8.466,5.674 8.507,5.43 8.805,5.239C9.772,4.615 10.809,4.369 11.901,4.44C12.337,4.47 12.651,4.671 12.651,4.671C12.435,4.249 11.994,3.938 11.209,3.872C10.16,3.786 8.932,3.881 8.034,4.478C7.282,4.98 7.048,5.749 7.414,6.557Z" fill="#A06841" />
  <path d="M8.289,9.467L8.891,9.632C8.991,9.658 9.081,9.568 9.054,9.47L8.831,8.634C8.805,8.535 8.681,8.503 8.608,8.576L8.166,9.026C8.149,8.967 8.122,8.911 8.084,8.863C8.046,8.814 7.999,8.774 7.946,8.743C7.892,8.713 7.833,8.694 7.772,8.686C7.711,8.679 7.649,8.683 7.59,8.7L7.404,8.75C7.191,8.809 7.065,9.032 7.123,9.245L7.281,9.814C7.339,10.027 7.562,10.153 7.776,10.095L7.961,10.044C8.081,10.011 8.183,9.932 8.245,9.823C8.306,9.715 8.322,9.587 8.289,9.467ZM11.944,16.239L12.42,16.586C12.6,16.717 12.851,16.678 12.983,16.498L13.097,16.342C13.249,16.134 13.204,15.84 12.994,15.688L13.568,15.442C13.661,15.403 13.676,15.276 13.594,15.214L12.898,14.698C12.88,14.684 12.857,14.675 12.834,14.672C12.811,14.67 12.788,14.673 12.766,14.682C12.745,14.692 12.726,14.707 12.713,14.726C12.699,14.744 12.69,14.767 12.688,14.79L12.623,15.418C12.573,15.382 12.516,15.356 12.457,15.341C12.397,15.327 12.335,15.324 12.274,15.334C12.213,15.344 12.155,15.365 12.102,15.397C12.05,15.429 12.004,15.471 11.968,15.521L11.854,15.677C11.724,15.857 11.764,16.108 11.944,16.239ZM10.496,14.859L10.909,15.281C11.064,15.441 11.319,15.444 11.479,15.289L11.618,15.154C11.803,14.974 11.807,14.677 11.625,14.492L12.233,14.345C12.332,14.321 12.368,14.199 12.296,14.124L11.698,13.5C11.682,13.483 11.662,13.47 11.639,13.464C11.617,13.457 11.593,13.457 11.57,13.463C11.547,13.468 11.527,13.48 11.51,13.497C11.493,13.513 11.481,13.533 11.475,13.556L11.306,14.164C11.263,14.119 11.212,14.084 11.156,14.06C11.099,14.036 11.038,14.023 10.977,14.022C10.915,14.021 10.854,14.033 10.797,14.056C10.74,14.079 10.688,14.113 10.644,14.156L10.506,14.291C10.344,14.445 10.342,14.7 10.496,14.859ZM9.15,13.164L9.478,13.656C9.602,13.841 9.851,13.89 10.037,13.766L10.198,13.659C10.414,13.515 10.47,13.224 10.328,13.01L10.95,12.977C11.051,12.971 11.109,12.857 11.053,12.772L10.579,12.049C10.566,12.029 10.548,12.013 10.527,12.002C10.506,11.992 10.483,11.987 10.459,11.989C10.436,11.99 10.413,11.998 10.393,12.011C10.374,12.024 10.358,12.042 10.348,12.064L10.071,12.63C10.002,12.527 9.895,12.455 9.773,12.431C9.651,12.407 9.525,12.432 9.422,12.5L9.261,12.607C9.217,12.637 9.179,12.674 9.15,12.718C9.12,12.762 9.1,12.811 9.09,12.863C9.08,12.915 9.08,12.968 9.09,13.019C9.1,13.071 9.121,13.12 9.15,13.164ZM7.969,11.402L8.239,11.927C8.288,12.021 8.372,12.093 8.474,12.126C8.575,12.158 8.686,12.149 8.781,12.101L8.953,12.013C9.008,11.985 9.057,11.946 9.096,11.9C9.136,11.853 9.166,11.799 9.185,11.74C9.204,11.682 9.211,11.62 9.206,11.559C9.201,11.497 9.184,11.438 9.156,11.383L9.778,11.42C9.879,11.426 9.951,11.319 9.904,11.229L9.516,10.457C9.505,10.436 9.489,10.418 9.469,10.405C9.45,10.392 9.427,10.385 9.404,10.384C9.38,10.382 9.357,10.387 9.336,10.398C9.315,10.409 9.297,10.425 9.285,10.446L8.944,10.976C8.916,10.921 8.877,10.873 8.83,10.833C8.784,10.793 8.729,10.763 8.671,10.744C8.612,10.725 8.551,10.718 8.489,10.723C8.428,10.728 8.368,10.745 8.314,10.774L8.141,10.862C7.944,10.961 7.867,11.205 7.969,11.402Z" fill="#78A3AC" />
  <path d="M5.346,7.731C3.891,7.731 2.076,7.228 1.8,6.585C1.678,6.298 1.903,6.165 1.903,6.165C2.687,6.81 3.973,7.172 5.441,7.155C5.599,7.153 5.73,7.273 5.736,7.429C5.743,7.592 5.614,7.727 5.451,7.729C5.415,7.729 5.379,7.731 5.346,7.731ZM5.276,10.024C4.001,10.024 2.842,9.752 1.982,9.264C1.982,9.264 2.017,8.884 1.896,8.751C1.717,8.554 1.594,8.261 1.594,8.261C2.344,9.021 3.722,9.458 5.312,9.448C5.469,9.448 5.599,9.568 5.604,9.724C5.61,9.885 5.483,10.022 5.323,10.022C5.306,10.024 5.291,10.024 5.276,10.024Z" fill="#4E342E" />
  <path d="M4.476,3.512C4.161,3.537 3.804,3.615 3.508,3.726C3.246,3.824 2.934,3.975 2.848,4.24C2.745,4.559 2.933,4.806 3.154,4.975C3.465,5.241 4.253,5.264 4.118,5.77C3.926,6.484 2.413,6.062 2.049,5.712C0.923,4.707 1.768,3.51 2.959,3.115C3.527,2.925 4.161,2.781 4.678,2.79C4.804,2.792 5.216,2.83 5.179,3.149C5.147,3.426 4.884,3.48 4.476,3.512ZM2.331,7.392C2.616,7.551 3.244,7.632 3.281,7.956C3.339,8.445 2.483,8.41 2.153,8.243C1.901,8.155 1.614,7.92 1.541,7.581C1.453,7.18 1.718,7.049 2.331,7.392Z" fill="#A06841" />
</svg>