<svg width="24" height="24" viewBox="0 0 24 24" xmlns="http://www.w3.org/2000/svg">
  <path d="M12,18C11.308,18 10.631,17.795 10.056,17.41C9.48,17.026 9.031,16.479 8.766,15.839C8.502,15.2 8.432,14.496 8.567,13.817C8.702,13.138 9.036,12.515 9.525,12.025C10.015,11.536 10.638,11.202 11.317,11.067C11.996,10.932 12.7,11.002 13.339,11.266C13.979,11.531 14.526,11.98 14.91,12.556C15.295,13.131 15.5,13.808 15.5,14.5C15.499,15.428 15.13,16.318 14.474,16.974C13.818,17.63 12.928,17.999 12,18Z" fill="#000000" />
  <path d="M14.64,16.772C14.316,17.157 13.912,17.466 13.456,17.678C13,17.89 12.503,18 12,18C11.497,18 11,17.89 10.544,17.678C10.088,17.466 9.684,17.157 9.36,16.772C8.64,17.219 8.046,17.841 7.633,18.581C7.22,19.321 7.002,20.153 7,21C7,21.266 7.105,21.52 7.293,21.708C7.48,21.895 7.735,22 8,22H16C16.265,22 16.52,21.895 16.707,21.708C16.895,21.52 17,21.266 17,21C16.998,20.153 16.78,19.321 16.367,18.581C15.954,17.841 15.36,17.219 14.64,16.772Z" fill="#000000" />
  <path d="M21,12C20.755,12 20.519,11.911 20.336,11.748L12,4.338L3.664,11.748C3.466,11.924 3.205,12.014 2.941,11.999C2.676,11.983 2.428,11.863 2.252,11.664C2.076,11.466 1.986,11.206 2.002,10.941C2.017,10.676 2.138,10.428 2.336,10.252L11.336,2.252C11.519,2.09 11.755,2 12,2C12.245,2 12.481,2.09 12.664,2.252L21.664,10.252C21.816,10.387 21.923,10.565 21.971,10.762C22.02,10.959 22.007,11.166 21.935,11.355C21.863,11.545 21.735,11.708 21.568,11.823C21.401,11.939 21.203,12 21,12Z" fill="#000000" />
  <path d="M12,4.338L4,11.449V21C4,21.265 4.105,21.52 4.293,21.707C4.48,21.895 4.735,22 5,22H8C7.735,22 7.48,21.895 7.293,21.707C7.105,21.52 7,21.265 7,21C7.002,20.153 7.22,19.32 7.633,18.58C8.046,17.841 8.64,17.218 9.36,16.772C8.809,16.143 8.504,15.336 8.5,14.5C8.5,13.572 8.869,12.681 9.525,12.025C10.182,11.369 11.072,11 12,11C12.928,11 13.818,11.369 14.475,12.025C15.131,12.681 15.5,13.572 15.5,14.5C15.497,15.336 15.191,16.143 14.64,16.772C15.36,17.218 15.954,17.841 16.367,18.58C16.78,19.32 16.998,20.153 17,21C17,21.265 16.895,21.52 16.707,21.707C16.52,21.895 16.265,22 16,22H19C19.265,22 19.52,21.895 19.707,21.707C19.895,21.52 20,21.265 20,21V11.449L12,4.338Z" fill="#000000" />
</svg>