<svg width="24" height="24" viewBox="0 0 24 24" xmlns="http://www.w3.org/2000/svg">
  <path d="M10.813,1.591C11.901,1.47 12.544,1.47 13.713,1.591C15.781,1.897 17.699,2.853 19.188,4.321C18.182,5.272 17.188,6.237 16.209,7.216C14.333,5.626 12.239,5.259 9.927,6.115C8.231,6.895 7.05,8.159 6.384,9.907C5.296,9.097 4.221,8.268 3.162,7.42C3.088,7.381 3.004,7.367 2.922,7.38C4.605,4.135 7.235,2.205 10.812,1.59" fill="#F44336" fill-rule="evenodd" />
  <path d="M2.919,7.38C3.004,7.367 3.084,7.38 3.16,7.42C4.22,8.268 5.294,9.097 6.382,9.907C6.211,10.588 6.103,11.284 6.06,11.985C6.097,12.663 6.204,13.328 6.382,13.981L3,16.674C1.527,13.596 1.5,10.498 2.919,7.38Z" fill="#FFC107" fill-rule="evenodd" />
  <path d="M19.027,19.935C17.974,19.006 16.872,18.135 15.724,17.325C16.874,16.513 17.572,15.399 17.818,13.983H12.183V10.07C15.433,10.043 18.681,10.07 21.928,10.152C22.544,13.497 21.833,16.513 19.794,19.2C19.551,19.458 19.295,19.703 19.027,19.935Z" fill="#448AFF" fill-rule="evenodd" />
  <path d="M6.383,13.982C7.613,17.039 9.868,18.466 13.148,18.263C14.068,18.157 14.951,17.835 15.724,17.324C16.872,18.136 17.973,19.006 19.028,19.934C17.358,21.435 15.228,22.326 12.987,22.46C12.478,22.501 11.966,22.501 11.457,22.46C7.639,22.01 4.82,20.081 3,16.673L6.383,13.982Z" fill="#43A047" fill-rule="evenodd" />
</svg>