<svg width="24" height="24" viewBox="0 0 24 24" xmlns="http://www.w3.org/2000/svg">
  <path d="M11.775,8.665L4.275,4.845C4.234,4.824 4.2,4.792 4.176,4.753C4.152,4.714 4.139,4.669 4.139,4.623C4.139,4.577 4.152,4.531 4.176,4.492C4.2,4.453 4.234,4.421 4.275,4.4L11.775,0.555C11.846,0.518 11.925,0.499 12.005,0.499C12.085,0.499 12.164,0.518 12.235,0.555L19.735,4.4C19.776,4.421 19.81,4.453 19.834,4.492C19.858,4.531 19.871,4.577 19.871,4.623C19.871,4.669 19.858,4.714 19.834,4.753C19.81,4.792 19.776,4.824 19.735,4.845L12.235,8.665C12.164,8.702 12.085,8.721 12.005,8.721C11.925,8.721 11.846,8.702 11.775,8.665Z" fill="#656769" stroke="#45413C" stroke-width="0.5" />
  <path d="M4.155,4.62V8.595" fill="#00000000" stroke="#45413C" stroke-width="0.5" />
  <path d="M4.635,8.59C4.64,8.521 4.63,8.452 4.608,8.388C4.585,8.323 4.548,8.263 4.502,8.213C4.455,8.163 4.398,8.123 4.335,8.096C4.272,8.069 4.204,8.055 4.135,8.055C4.066,8.055 3.998,8.069 3.935,8.096C3.872,8.123 3.815,8.163 3.769,8.213C3.722,8.263 3.686,8.323 3.663,8.388C3.64,8.452 3.63,8.521 3.635,8.59L3.54,10.435H4.73L4.635,8.59Z" fill="#FFE500" stroke="#45413C" stroke-width="0.5" />
  <path d="M15.77,17.045L12,15.61L8.23,17.045C7.591,17.289 7.04,17.722 6.652,18.285C6.264,18.848 6.056,19.516 6.055,20.2V22.5H17.945V20.2C17.944,19.516 17.736,18.848 17.348,18.285C16.959,17.722 16.409,17.289 15.77,17.045Z" fill="#656769" />
  <path d="M15.77,17.045L12,15.61L8.23,17.045C7.591,17.289 7.04,17.722 6.652,18.285C6.264,18.848 6.056,19.516 6.055,20.2V21.7C6.056,21.016 6.264,20.348 6.652,19.785C7.04,19.222 7.591,18.789 8.23,18.545L12,17.105L15.77,18.54C16.409,18.784 16.959,19.216 17.348,19.78C17.736,20.343 17.944,21.011 17.945,21.695V20.195C17.943,19.512 17.735,18.845 17.346,18.283C16.958,17.72 16.408,17.289 15.77,17.045Z" fill="#525252" />
  <path d="M15.77,17.045L12,15.61L8.23,17.045C7.591,17.289 7.04,17.722 6.652,18.285C6.264,18.848 6.056,19.516 6.055,20.2V22.5H17.945V20.2C17.944,19.516 17.736,18.848 17.348,18.285C16.959,17.722 16.409,17.289 15.77,17.045Z" fill="#00000000" stroke="#45413C" stroke-width="0.5" />
  <path d="M12,17.555C12,17.555 10.73,17 10.73,16.285V14.86C10.729,14.693 10.762,14.527 10.825,14.372C10.889,14.218 10.982,14.077 11.1,13.959C11.218,13.84 11.358,13.746 11.513,13.682C11.667,13.618 11.833,13.585 12,13.585C12.167,13.585 12.333,13.618 12.487,13.682C12.642,13.746 12.782,13.84 12.9,13.959C13.018,14.077 13.111,14.218 13.175,14.372C13.238,14.527 13.271,14.693 13.27,14.86V16.285C13.27,17 12,17.555 12,17.555Z" fill="#FFCEBF" />
  <path d="M12,13.585C11.663,13.585 11.34,13.719 11.102,13.957C10.864,14.195 10.73,14.518 10.73,14.855V15.155C10.73,15.492 10.864,15.815 11.102,16.053C11.34,16.291 11.663,16.425 12,16.425C12.337,16.425 12.66,16.291 12.898,16.053C13.136,15.815 13.27,15.492 13.27,15.155V14.86C13.271,14.693 13.238,14.527 13.175,14.372C13.111,14.218 13.018,14.077 12.9,13.959C12.782,13.84 12.642,13.746 12.487,13.682C12.333,13.618 12.167,13.585 12,13.585Z" fill="#FFB59E" />
  <path d="M6.725,18.175L8.53,22.5M17.275,18.175L15.47,22.5M10.27,20.24L10.635,22.5M13.73,20.24L13.365,22.5M12,17.555C12,17.555 10.73,17 10.73,16.285V14.86C10.729,14.693 10.762,14.527 10.825,14.372C10.889,14.218 10.982,14.077 11.1,13.959C11.218,13.84 11.358,13.746 11.513,13.682C11.667,13.618 11.833,13.585 12,13.585C12.167,13.585 12.333,13.618 12.487,13.682C12.642,13.746 12.782,13.84 12.9,13.959C13.018,14.077 13.111,14.218 13.175,14.372C13.238,14.527 13.271,14.693 13.27,14.86V16.285C13.27,17 12,17.555 12,17.555Z" fill="#00000000" stroke="#45413C" stroke-width="0.5" />
  <path d="M4.5,22.75C4.5,22.949 5.29,23.14 6.697,23.28C8.103,23.421 10.011,23.5 12,23.5C13.989,23.5 15.897,23.421 17.303,23.28C18.71,23.14 19.5,22.949 19.5,22.75C19.5,22.551 18.71,22.36 17.303,22.22C15.897,22.079 13.989,22 12,22C10.011,22 8.103,22.079 6.697,22.22C5.29,22.36 4.5,22.551 4.5,22.75Z" fill="#45413C" />
  <path d="M12,3.455C13.302,3.455 14.551,3.972 15.472,4.893C16.393,5.814 16.91,7.063 16.91,8.365V10.935H7.09V8.365C7.09,7.063 7.607,5.814 8.528,4.893C9.449,3.972 10.698,3.455 12,3.455Z" fill="#A86C4D" stroke="#45413C" stroke-width="0.5" />
  <path d="M17.435,10.56C17.411,10.377 17.331,10.205 17.207,10.067C17.083,9.93 16.92,9.833 16.74,9.79L16.445,9.71C16.228,9.649 16.036,9.518 15.901,9.337C15.765,9.156 15.693,8.936 15.695,8.71V7.69C15.694,7.484 15.626,7.284 15.5,7.12C15.375,6.957 15.199,6.839 15,6.785C14.047,7.166 13.026,7.352 12,7.33C10.974,7.352 9.953,7.166 9,6.785C8.8,6.838 8.623,6.955 8.496,7.119C8.37,7.283 8.301,7.483 8.3,7.69V8.72C8.302,8.946 8.229,9.166 8.094,9.347C7.958,9.528 7.767,9.659 7.55,9.72L7.255,9.8C7.075,9.843 6.912,9.94 6.788,10.077C6.664,10.215 6.584,10.387 6.56,10.57C6.547,10.697 6.56,10.825 6.6,10.946C6.639,11.067 6.704,11.178 6.789,11.272C6.874,11.367 6.979,11.442 7.095,11.493C7.212,11.545 7.338,11.571 7.465,11.57H7.52C7.637,12.675 8.159,13.698 8.985,14.442C9.811,15.185 10.884,15.597 11.995,15.597C13.106,15.597 14.179,15.185 15.005,14.442C15.831,13.698 16.353,12.675 16.47,11.57H16.525C16.654,11.572 16.781,11.546 16.899,11.494C17.017,11.443 17.122,11.367 17.208,11.271C17.295,11.175 17.359,11.063 17.398,10.94C17.437,10.817 17.45,10.688 17.435,10.56Z" fill="#FFCEBF" stroke="#45413C" stroke-width="0.5" />
  <path d="M9.285,10.455C9.285,10.531 9.308,10.606 9.35,10.669C9.392,10.733 9.452,10.782 9.523,10.811C9.593,10.84 9.67,10.848 9.745,10.833C9.82,10.818 9.888,10.781 9.942,10.728C9.996,10.674 10.033,10.605 10.047,10.531C10.062,10.456 10.055,10.378 10.026,10.308C9.997,10.238 9.947,10.177 9.884,10.135C9.821,10.093 9.746,10.07 9.67,10.07C9.619,10.07 9.569,10.079 9.522,10.098C9.475,10.117 9.432,10.146 9.396,10.182C9.36,10.217 9.332,10.26 9.313,10.307C9.294,10.354 9.284,10.405 9.285,10.455ZM14.715,10.455C14.715,10.531 14.692,10.606 14.65,10.669C14.608,10.733 14.548,10.782 14.477,10.811C14.407,10.84 14.33,10.848 14.255,10.833C14.18,10.818 14.112,10.781 14.058,10.728C14.004,10.674 13.967,10.605 13.952,10.531C13.938,10.456 13.945,10.378 13.974,10.308C14.003,10.238 14.053,10.177 14.116,10.135C14.179,10.093 14.254,10.07 14.33,10.07C14.381,10.07 14.431,10.079 14.478,10.098C14.525,10.117 14.568,10.146 14.604,10.182C14.64,10.217 14.668,10.26 14.687,10.307C14.706,10.354 14.716,10.405 14.715,10.455Z" fill="#45413C" stroke="#45413C" stroke-width="0.5" />
  <path d="M10.58,12.8C10.548,12.8 10.517,12.808 10.489,12.822C10.46,12.836 10.435,12.855 10.415,12.88C10.394,12.903 10.379,12.931 10.37,12.962C10.361,12.992 10.36,13.024 10.365,13.055C10.433,13.439 10.634,13.788 10.933,14.039C11.232,14.29 11.61,14.428 12,14.428C12.391,14.428 12.769,14.29 13.068,14.039C13.367,13.788 13.568,13.439 13.635,13.055C13.64,13.024 13.639,12.992 13.63,12.962C13.621,12.931 13.606,12.903 13.585,12.88C13.565,12.855 13.54,12.836 13.511,12.822C13.483,12.808 13.452,12.8 13.42,12.8H10.58Z" fill="#FF6242" />
  <path d="M12,13.5C11.549,13.482 11.104,13.618 10.74,13.885C10.898,14.06 11.09,14.2 11.306,14.296C11.521,14.392 11.754,14.442 11.99,14.442C12.226,14.442 12.459,14.392 12.674,14.296C12.89,14.2 13.082,14.06 13.24,13.885C12.881,13.622 12.445,13.486 12,13.5Z" fill="#FFA694" />
  <path d="M10.58,12.8C10.548,12.8 10.517,12.808 10.489,12.822C10.46,12.836 10.435,12.855 10.415,12.88C10.394,12.903 10.379,12.931 10.37,12.962C10.361,12.992 10.36,13.024 10.365,13.055C10.433,13.439 10.634,13.788 10.933,14.039C11.232,14.29 11.61,14.428 12,14.428C12.391,14.428 12.769,14.29 13.068,14.039C13.367,13.788 13.568,13.439 13.635,13.055C13.64,13.024 13.639,12.992 13.63,12.962C13.621,12.931 13.606,12.903 13.585,12.88C13.565,12.855 13.54,12.836 13.511,12.822C13.483,12.808 13.452,12.8 13.42,12.8H10.58Z" fill="#00000000" stroke="#45413C" stroke-width="0.5" />
  <path d="M8.53,12.095C8.53,12.175 8.583,12.251 8.676,12.307C8.77,12.363 8.897,12.395 9.03,12.395C9.163,12.395 9.29,12.363 9.384,12.307C9.477,12.251 9.53,12.175 9.53,12.095C9.53,12.015 9.477,11.939 9.384,11.883C9.29,11.826 9.163,11.795 9.03,11.795C8.897,11.795 8.77,11.826 8.676,11.883C8.583,11.939 8.53,12.015 8.53,12.095ZM14.47,12.095C14.47,12.175 14.523,12.251 14.616,12.307C14.71,12.363 14.837,12.395 14.97,12.395C15.103,12.395 15.23,12.363 15.324,12.307C15.417,12.251 15.47,12.175 15.47,12.095C15.47,12.015 15.417,11.939 15.324,11.883C15.23,11.826 15.103,11.795 14.97,11.795C14.837,11.795 14.71,11.826 14.616,11.883C14.523,11.939 14.47,12.015 14.47,12.095Z" fill="#FFB59E" />
  <path d="M7.34,4.5C7.34,3.89 9.29,3.395 12,3.395C14.71,3.395 16.66,3.895 16.66,4.5L17.16,8.795C17.16,8.155 14.855,7.635 12.01,7.635C9.165,7.635 6.86,8.135 6.86,8.795L7.34,4.5Z" fill="#656769" />
  <path d="M12,5.035C14.31,5.035 16.11,5.335 16.805,5.75L16.66,4.5C16.66,3.89 14.71,3.395 12,3.395C9.29,3.395 7.34,3.895 7.34,4.5L7.195,5.765C7.89,5.335 9.69,5.035 12,5.035Z" fill="#525252" />
  <path d="M7.34,4.5C7.34,3.89 9.29,3.395 12,3.395C14.71,3.395 16.66,3.895 16.66,4.5L17.16,8.795C17.16,8.155 14.855,7.635 12.01,7.635C9.165,7.635 6.86,8.135 6.86,8.795L7.34,4.5Z" fill="#00000000" stroke="#45413C" stroke-width="0.5" />
</svg>