<svg width="24" height="24" viewBox="0 0 24 24" xmlns="http://www.w3.org/2000/svg">
  <path d="M12.597,21.8C12.425,21.929 12.215,21.999 12,21.999C11.785,21.999 11.575,21.929 11.403,21.8C6.253,17.976 0.785,10.109 6.31,4.425C7.048,3.66 7.931,3.051 8.909,2.635C9.886,2.218 10.938,2.002 12,2C14.134,2 16.18,2.872 17.689,4.424C23.215,10.108 17.748,17.974 12.597,21.801" fill="#00000000" stroke="#000000" stroke-width="1.5" />
  <path d="M12,12C12.53,12 13.039,11.789 13.414,11.414C13.789,11.039 14,10.53 14,10C14,9.47 13.789,8.961 13.414,8.586C13.039,8.211 12.53,8 12,8C11.47,8 10.961,8.211 10.586,8.586C10.211,8.961 10,9.47 10,10C10,10.53 10.211,11.039 10.586,11.414C10.961,11.789 11.47,12 12,12Z" fill="#00000000" stroke="#000000" stroke-width="1.5" />
</svg>