<svg width="24" height="24" viewBox="0 0 24 24" xmlns="http://www.w3.org/2000/svg">
  <g>
  <path d="M23.753,13.623C16.235,13.85 13.357,20.936 5.839,21.163C5.658,21.168 5.446,21.077 5.37,20.965L0.007,13.038C-0.069,12.926 0.019,12.835 0.2,12.829C7.719,12.602 10.596,5.516 18.115,5.289C18.296,5.284 18.507,5.375 18.583,5.487L23.947,13.414C24.023,13.526 23.934,13.617 23.753,13.623Z" fill="#7BD873" />
  <path d="M5.883,14.005C6.308,13.903 6.697,13.878 7.076,13.923C7.184,13.936 7.253,14.022 7.232,14.114C7.195,14.268 7.158,14.422 7.12,14.575C7.098,14.661 7.001,14.72 6.896,14.711C6.491,14.677 6.129,14.728 5.765,14.863C5.347,15.017 5.162,15.231 5.326,15.473C5.489,15.715 5.772,15.775 6.69,15.657C7.805,15.503 8.513,15.518 9.002,16.241C9.385,16.807 9.256,17.492 8.57,17.997C8.502,18.047 8.486,18.125 8.529,18.189L8.986,18.865C9.039,18.943 9.001,19.04 8.899,19.08C8.727,19.147 8.554,19.211 8.38,19.27C8.276,19.306 8.147,19.27 8.094,19.191L7.671,18.566C7.623,18.496 7.512,18.458 7.411,18.478C6.767,18.605 6.154,18.538 5.627,18.386C5.501,18.35 5.396,18.319 5.436,18.247C5.523,18.09 5.608,17.929 5.691,17.765C5.745,17.656 5.827,17.687 5.941,17.713C6.433,17.826 6.906,17.826 7.355,17.671C7.865,17.493 8.034,17.186 7.836,16.893C7.642,16.606 7.386,16.571 6.513,16.654C5.136,16.766 4.396,16.432 4.014,15.867C3.629,15.298 3.964,14.812 4.693,14.433C4.771,14.392 4.844,14.388 4.799,14.322L4.285,13.563C4.232,13.484 4.329,13.473 4.434,13.438C4.608,13.378 4.781,13.315 4.952,13.248C5.054,13.208 5.179,13.238 5.232,13.316L5.645,13.926C5.69,13.993 5.79,14.027 5.883,14.005ZM16.622,16.507C15.528,17.23 14.476,18.015 13.384,18.74C13.129,18.91 12.796,18.861 12.644,18.636L7.174,10.552C7.022,10.327 7.108,10.011 7.363,9.842C8.455,9.116 9.507,8.332 10.601,7.608C10.856,7.44 11.189,7.489 11.341,7.714L16.812,15.799C16.964,16.023 16.877,16.338 16.622,16.507Z" fill="#597B91" />
  <path d="M20.131,16.894C22.57,19.334 22.361,20.955 21.219,22.114C20.066,23.284 18.379,23.487 17.462,22.57C16.83,21.938 16.73,20.94 17.113,20.003C17.187,19.821 17.062,19.666 16.877,19.714C16.261,19.872 15.644,19.757 15.232,19.345C14.766,18.879 14.68,18.151 14.94,17.458C15.007,17.278 14.882,17.13 14.7,17.177C14.168,17.314 13.637,17.201 13.303,16.815C12.822,16.259 11.34,14.988 11.973,14.309C12.432,13.816 17.532,14.295 20.131,16.894ZM11.438,4.159C10.082,0.986 8.5,0.577 6.998,1.205C5.483,1.839 4.667,3.329 5.176,4.521C5.527,5.343 6.416,5.808 7.428,5.802C7.625,5.8 7.722,5.974 7.609,6.128C7.232,6.641 7.109,7.256 7.338,7.792C7.597,8.398 8.24,8.749 8.981,8.766C9.172,8.771 9.263,8.942 9.152,9.093C8.827,9.535 8.733,10.071 8.967,10.524C9.304,11.178 9.932,13.026 10.798,12.692C11.427,12.45 12.881,7.538 11.438,4.159Z" fill="#C4F0F2" />
  </g>
</svg>