<svg width="24" height="24" viewBox="0 0 24 24" xmlns="http://www.w3.org/2000/svg">
  <path d="M14.28,6.645H10.2V22.5H14.28V6.645Z" fill="#6D4534" />
  <path d="M3.75,6.12C3.336,6.12 2.993,5.782 3.06,5.373C3.238,4.292 3.794,3.309 4.629,2.6C5.464,1.89 6.524,1.501 7.62,1.5C10.17,1.5 12.24,3.563 12.24,6.12H3.75ZM12.24,6.12H20.73C21.144,6.12 21.486,5.782 21.42,5.373C21.243,4.291 20.687,3.308 19.852,2.599C19.016,1.889 17.956,1.5 16.86,1.5C14.31,1.5 12.24,3.57 12.24,6.12Z" fill="#86D72F" />
  <path d="M11.727,5.718C12.037,5.916 12.443,5.916 12.752,5.718C13.639,5.154 14.691,4.91 15.735,5.025C16.78,5.14 17.753,5.609 18.495,6.353C19.268,7.128 19.742,8.153 19.83,9.245C19.919,10.336 19.618,11.424 18.98,12.314C18.739,12.651 18.257,12.648 17.965,12.355L12.77,7.161C12.63,7.02 12.439,6.941 12.24,6.941C12.041,6.941 11.85,7.02 11.71,7.161L6.515,12.355C6.223,12.648 5.741,12.651 5.499,12.314C4.858,11.425 4.556,10.337 4.645,9.244C4.734,8.152 5.209,7.127 5.985,6.353C6.729,5.612 7.702,5.146 8.745,5.031C9.788,4.915 10.84,5.158 11.727,5.718Z" fill="#44911B" />
  <path d="M11.663,8.947C11.663,9.377 11.492,9.789 11.188,10.093C10.884,10.396 10.472,10.567 10.043,10.567C9.613,10.567 9.201,10.396 8.897,10.093C8.593,9.789 8.423,9.377 8.423,8.947C8.423,8.517 8.593,8.105 8.897,7.802C9.201,7.498 9.613,7.327 10.043,7.327C10.472,7.327 10.884,7.498 11.188,7.802C11.492,8.105 11.663,8.517 11.663,8.947ZM16.058,10.275C16.058,10.704 15.887,11.116 15.583,11.42C15.279,11.724 14.867,11.895 14.438,11.895C14.008,11.895 13.596,11.724 13.292,11.42C12.988,11.116 12.818,10.704 12.818,10.275C12.818,9.845 12.988,9.433 13.292,9.129C13.596,8.825 14.008,8.655 14.438,8.655C14.867,8.655 15.279,8.825 15.583,9.129C15.887,9.433 16.058,9.845 16.058,10.275Z" fill="#D3883E" />
</svg>