<svg width="24" height="24" viewBox="0 0 24 24" xmlns="http://www.w3.org/2000/svg">
  <path d="M4.5,9.75C3.704,9.75 2.941,10.066 2.379,10.629C1.816,11.191 1.5,11.954 1.5,12.75C1.5,13.546 1.816,14.309 2.379,14.871C2.941,15.434 3.704,15.75 4.5,15.75H19.5C20.296,15.75 21.059,15.434 21.621,14.871C22.184,14.309 22.5,13.546 22.5,12.75C22.5,11.954 22.184,11.191 21.621,10.629C21.059,10.066 20.296,9.75 19.5,9.75H4.5ZM3,12.75C3,12.352 3.158,11.971 3.439,11.689C3.721,11.408 4.102,11.25 4.5,11.25H7.5V14.25H4.5C4.102,14.25 3.721,14.092 3.439,13.811C3.158,13.529 3,13.148 3,12.75ZM19.5,14.25H16.5V11.25H19.5C19.898,11.25 20.279,11.408 20.561,11.689C20.842,11.971 21,12.352 21,12.75C21,13.148 20.842,13.529 20.561,13.811C20.279,14.092 19.898,14.25 19.5,14.25Z" fill="#B4ACBC" />
  <path d="M5.25,10.5H18.75V15.75C18.75,17.54 18.039,19.257 16.773,20.523C15.507,21.789 13.79,22.5 12,22.5C10.21,22.5 8.493,21.789 7.227,20.523C5.961,19.257 5.25,17.54 5.25,15.75V10.5Z" fill="#CDC4D6" />
  <path d="M18.75,10.5C18.75,12.29 18.039,14.007 16.773,15.273C15.507,16.539 13.79,17.25 12,17.25C10.21,17.25 8.493,16.539 7.227,15.273C5.961,14.007 5.25,12.29 5.25,10.5C5.25,8.71 5.961,6.993 7.227,5.727C8.493,4.461 10.21,3.75 12,3.75C13.79,3.75 15.507,4.461 16.773,5.727C18.039,6.993 18.75,8.71 18.75,10.5Z" fill="#E1D8EC" />
  <path d="M18,10.5C18,12.091 17.368,13.617 16.243,14.743C15.117,15.868 13.591,16.5 12,16.5C10.409,16.5 8.883,15.868 7.757,14.743C6.632,13.617 6,12.091 6,10.5C6,8.909 6.632,7.383 7.757,6.257C8.883,5.132 10.409,4.5 12,4.5C13.591,4.5 15.117,5.132 16.243,6.257C17.368,7.383 18,8.909 18,10.5Z" fill="#FF6723" />
  <path d="M13.5,13.5C13.5,13.102 13.658,12.721 13.939,12.439C14.221,12.158 14.602,12 15,12C15.398,12 15.779,12.158 16.061,12.439C16.342,12.721 16.5,13.102 16.5,13.5H13.5ZM8.25,14.25C8.25,14.051 8.329,13.86 8.47,13.72C8.61,13.579 8.801,13.5 9,13.5C9.199,13.5 9.39,13.579 9.53,13.72C9.671,13.86 9.75,14.051 9.75,14.25H8.25Z" fill="#FCD53F" />
  <path d="M15,7.5C14.602,7.5 14.221,7.658 13.939,7.939C13.658,8.221 13.5,8.602 13.5,9C13.5,8.801 13.421,8.61 13.28,8.47C13.14,8.329 12.949,8.25 12.75,8.25C12.551,8.25 12.36,8.329 12.22,8.47C12.079,8.61 12,8.801 12,9H16.5C16.5,8.602 16.342,8.221 16.061,7.939C15.779,7.658 15.398,7.5 15,7.5ZM10.5,15.75C10.5,15.352 10.658,14.971 10.939,14.689C11.221,14.408 11.602,14.25 12,14.25C12.398,14.25 12.779,14.408 13.061,14.689C13.342,14.971 13.5,15.352 13.5,15.75H10.5Z" fill="#00D26A" />
  <path d="M11.813,6.75C11.813,6.899 11.753,7.042 11.648,7.148C11.542,7.253 11.399,7.313 11.25,7.313C11.101,7.313 10.958,7.253 10.852,7.148C10.747,7.042 10.688,6.899 10.688,6.75C10.688,6.601 10.747,6.458 10.852,6.352C10.958,6.247 11.101,6.188 11.25,6.188C11.399,6.188 11.542,6.247 11.648,6.352C11.753,6.458 11.813,6.601 11.813,6.75ZM8.063,12C8.063,12.149 8.003,12.292 7.898,12.398C7.792,12.503 7.649,12.563 7.5,12.563C7.351,12.563 7.208,12.503 7.102,12.398C6.997,12.292 6.938,12.149 6.938,12C6.938,11.851 6.997,11.708 7.102,11.602C7.208,11.497 7.351,11.438 7.5,11.438C7.649,11.438 7.792,11.497 7.898,11.602C8.003,11.708 8.063,11.851 8.063,12ZM15.75,11.063C15.899,11.063 16.042,11.003 16.148,10.898C16.253,10.792 16.313,10.649 16.313,10.5C16.313,10.351 16.253,10.208 16.148,10.102C16.042,9.997 15.899,9.938 15.75,9.938C15.601,9.938 15.458,9.997 15.352,10.102C15.247,10.208 15.188,10.351 15.188,10.5C15.188,10.649 15.247,10.792 15.352,10.898C15.458,11.003 15.601,11.063 15.75,11.063Z" fill="#990838" />
  <path d="M9.421,8.232C10.146,8.232 10.733,8.82 10.733,9.545C10.733,9.957 11.068,10.291 11.479,10.291C11.828,10.291 12.161,10.429 12.408,10.676C12.654,10.922 12.792,11.256 12.792,11.604C12.792,11.952 12.654,12.286 12.408,12.532C12.161,12.778 11.828,12.916 11.479,12.916C10.585,12.916 9.728,12.561 9.096,11.929C8.463,11.297 8.108,10.439 8.108,9.545C8.108,8.82 8.696,8.232 9.421,8.232Z" fill="#7D4533" />
</svg>