<svg width="24" height="24" viewBox="0 0 24 24" xmlns="http://www.w3.org/2000/svg">
  <g>
  <path d="M20.919,14.513C19.568,14.217 18.143,14.241 16.825,13.797C15.692,13.414 14.738,12.348 13.789,11.657C13.748,11.627 13.67,11.611 13.582,11.606C13.594,11.359 13.617,11.112 13.67,10.863C13.696,10.739 13.361,10.671 13.126,10.712C12.871,10.673 12.498,10.758 12.587,10.866C12.607,10.891 12.619,10.923 12.634,10.951C12.598,11.043 12.561,11.134 12.523,11.225C12.452,11.394 12.358,11.512 12.223,11.417C12.179,11.387 12.146,11.269 12.136,11.184C12.107,10.96 12.213,10.855 12.322,10.766C12.344,10.748 12.376,10.762 12.402,10.748C12.561,10.654 12.589,10.474 12.475,10.276C12.389,10.126 12.297,9.986 12.179,9.796C12.087,10.021 12.019,10.236 11.922,10.411C11.864,10.515 11.76,10.608 11.675,10.61C11.619,10.611 11.504,10.424 11.515,10.358C11.537,10.215 11.617,9.994 11.684,9.985C11.878,9.961 11.925,9.755 11.976,9.565L11.533,9.01C11.455,9.221 11.384,9.45 11.288,9.654C11.249,9.737 11.16,9.79 11.09,9.805C11.053,9.813 10.972,9.708 10.971,9.652C10.969,9.52 10.979,9.351 11.03,9.262C11.104,9.136 11.222,9.074 11.318,8.975C11.415,8.876 11.427,8.777 11.313,8.675C11.264,8.632 11.23,8.552 11.187,8.492C10.989,8.222 10.887,8.261 10.779,8.639C10.721,8.841 10.656,9.071 10.476,8.977C10.413,8.945 10.335,8.756 10.348,8.672C10.369,8.542 10.462,8.435 10.53,8.328C10.602,8.214 10.757,8.055 10.745,8.014C10.69,7.843 10.598,7.683 10.495,7.575C10.462,7.539 10.347,7.655 10.281,7.727C9.795,8.26 9.316,8.81 8.826,9.334C8.567,9.609 8.303,9.886 8.018,10.087C7.698,10.316 7.349,10.45 7.017,10.643C6.452,10.971 5.864,10.999 5.275,10.935C4.979,10.903 4.684,10.766 4.392,10.658C4.111,10.554 3.835,10.435 3.567,10.3C3.316,10.174 3.076,10.009 2.829,9.865C2.632,9.749 2.435,9.623 2.232,9.528C1.941,9.393 1.644,9.269 1.343,9.156C1.19,9.098 1.085,9.147 1.074,9.453C1.065,9.672 1.035,9.927 0.952,10.093C0.862,10.275 0.547,10.687 0.591,10.776C0.56,10.765 0.564,10.789 0.585,10.831C0.538,11.265 0.514,11.633 0.453,11.98C0.26,13.061 0.375,14.16 0.344,15.249C0.337,15.521 0.399,15.607 0.579,15.608C1.027,15.608 1.477,15.639 1.927,15.669C2.512,15.708 3.096,15.755 3.679,15.809C3.885,15.829 4.092,15.88 4.3,15.912L4.302,15.917C4.365,16.054 6.337,16.127 7.037,16.219C7.084,16.225 7.254,16.224 7.423,16.21C7.383,16.26 7.341,16.316 7.284,16.388C7.434,16.447 7.546,16.504 7.659,16.533C8.085,16.638 8.512,16.737 8.938,16.836C9.191,16.894 9.468,17.576 9.716,17.662C10.063,17.781 10.396,18 10.74,18.138C10.888,18.197 11.45,18.508 11.598,18.568C11.993,18.726 12.064,18.561 12.456,18.734C12.748,18.862 12.998,18.966 13.29,19.092C13.457,19.164 13.567,18.604 13.741,18.639C14.066,18.703 14.392,18.791 14.72,18.803C15.381,18.829 16.045,18.847 16.706,18.801C17.247,18.763 17.787,18.628 18.327,18.537C18.334,18.535 18.34,18.534 18.346,18.536C18.743,18.475 19.142,18.427 19.536,18.351C19.894,18.282 20.248,18.183 20.605,18.096C20.632,18.089 20.66,18.082 20.686,18.078C21.075,18.023 21.465,17.981 21.852,17.911C22.339,17.822 22.826,17.711 23.312,17.604C23.333,17.599 23.353,17.588 23.37,17.574C23.387,17.56 23.401,17.542 23.41,17.522C23.421,17.492 23.43,17.452 23.435,17.406C23.567,17.385 23.668,17.336 23.656,17.267C23.413,15.826 22.36,14.831 20.917,14.516" fill="#CCCCCC" />
  <path d="M10.767,17.51C6.983,15.953 4.155,13.378 3.352,10.179C3.176,10.077 3.004,9.968 2.829,9.865C2.632,9.75 2.435,9.623 2.232,9.529C1.941,9.394 1.644,9.27 1.343,9.157C1.19,9.099 1.085,9.148 1.074,9.454C1.065,9.673 1.035,9.928 0.952,10.094C0.862,10.276 0.547,10.687 0.591,10.777C0.56,10.765 0.564,10.789 0.585,10.832C0.538,11.266 0.514,11.634 0.453,11.981C0.26,13.061 0.375,14.161 0.344,15.25C0.337,15.522 0.399,15.607 0.579,15.608C1.027,15.609 1.477,15.639 1.927,15.67C2.512,15.709 3.096,15.756 3.679,15.81C3.885,15.829 4.092,15.88 4.3,15.913L4.302,15.918C4.365,16.055 6.337,16.128 7.037,16.219C7.084,16.225 7.254,16.225 7.423,16.211C7.383,16.261 7.341,16.316 7.284,16.388C7.434,16.447 7.546,16.505 7.659,16.534C8.085,16.639 8.512,16.737 8.938,16.837C9.191,16.894 9.468,17.577 9.716,17.662C10.063,17.782 10.396,18 10.74,18.139C10.888,18.197 11.45,18.509 11.598,18.568C11.993,18.727 12.064,18.562 12.456,18.735C12.748,18.863 12.998,18.966 13.29,19.092C13.457,19.164 13.567,18.605 13.741,18.64C14.066,18.704 14.392,18.792 14.72,18.804C14.848,18.809 14.976,18.81 15.103,18.813C13.62,18.508 12.168,18.088 10.765,17.51M10.779,8.64C10.721,8.842 10.656,9.072 10.476,8.978C10.413,8.946 10.335,8.757 10.348,8.673C10.369,8.543 10.462,8.436 10.53,8.329C10.602,8.215 10.757,8.056 10.745,8.015C10.69,7.844 10.598,7.684 10.495,7.576C10.462,7.54 10.347,7.656 10.281,7.728L10.058,7.974C9.843,8.968 10.327,9.621 11.527,10.302C11.559,10.163 11.626,9.993 11.685,9.986C11.879,9.961 11.925,9.756 11.977,9.566L11.533,9.01C11.456,9.222 11.384,9.451 11.289,9.655C11.25,9.738 11.16,9.791 11.091,9.805C11.054,9.814 10.973,9.709 10.972,9.653C10.97,9.521 10.979,9.351 11.031,9.262C11.104,9.137 11.223,9.074 11.319,8.976C11.416,8.877 11.427,8.778 11.313,8.676C11.265,8.632 11.231,8.553 11.188,8.493C10.989,8.223 10.887,8.262 10.779,8.64Z" fill="#BCBDBF" />
  <path d="M24.045,17.708C24.013,17.485 23.891,17.333 23.688,17.249L23.684,17.243L23.676,17.245C22.676,16.851 20.085,17.862 20.085,17.862C20.085,17.862 16.951,18.327 14.943,18.592C12.186,18.958 8.6,16.403 7.692,16.23C7.664,16.222 7.635,16.215 7.608,16.208C7.561,16.194 7.514,16.178 7.469,16.158C7.243,16.127 7.017,16.091 6.792,16.052C6.792,16.052 6.785,16.053 6.78,16.053C6.564,16.036 6.348,16.013 6.133,15.985C5.758,15.952 5.383,15.92 5.004,15.887C4.958,15.882 4.911,15.878 4.863,15.875C4.796,15.883 4.74,15.894 4.685,15.886C4.583,15.872 4.481,15.851 4.378,15.831L4.205,15.815C1.922,15.37 0.956,15.386 0.55,15.474C0.485,15.477 0.422,15.497 0.367,15.531C0.262,15.579 0.253,15.626 0.253,15.626V15.626C0.099,15.795 -0.003,16.086 -0.003,16.416V18.387C-0.003,18.907 0.249,19.33 0.558,19.33H6.557C6.777,19.33 6.963,19.111 7.055,18.8C9.597,19.011 12.09,19.933 14.634,20.048C14.775,20.063 14.93,20.077 15.11,20.086L15.111,20.092C15.395,20.092 15.68,20.107 15.964,20.092C15.985,20.09 16.006,20.09 16.027,20.091C16.338,20.075 16.649,20.049 16.959,20.012C17.06,20.033 17.167,20.041 17.235,20.022C17.424,19.971 17.614,19.928 17.802,19.887C17.991,19.854 18.181,19.828 18.369,19.788C18.434,19.775 18.498,19.757 18.564,19.743C19.912,19.531 21.268,19.496 22.64,19.361C23.338,19.292 23.639,18.963 23.851,18.485C23.9,18.443 23.94,18.374 23.964,18.277C24.002,18.176 24.015,18.092 24.031,18.007C24.054,17.938 24.076,17.87 24.099,17.796C24.109,17.766 24.083,17.738 24.043,17.714M11.769,7.801C12.151,8.087 12.31,8.519 12.123,8.771L10.692,10.696C10.505,10.945 10.044,10.919 9.66,10.634C9.276,10.349 9.118,9.914 9.305,9.665L10.737,7.74C10.923,7.489 11.384,7.517 11.769,7.801ZM13.294,9.064C13.678,9.349 13.836,9.782 13.649,10.034L12.218,11.958C12.032,12.208 11.571,12.182 11.188,11.897C10.804,11.612 10.645,11.177 10.832,10.928L12.263,9.003C12.449,8.751 12.911,8.78 13.294,9.064ZM14.783,10.494C15.165,10.779 15.324,11.212 15.136,11.464L13.706,13.388C13.519,13.638 13.059,13.612 12.675,13.326C12.293,13.042 12.132,12.607 12.32,12.358L13.751,10.433C13.937,10.181 14.399,10.21 14.783,10.494Z" fill="#25333A" fill-rule="evenodd" />
  </g>
</svg>