<svg width="24" height="24" viewBox="0 0 24 24" xmlns="http://www.w3.org/2000/svg">
  <path d="M21.3,6.3L19.2,14.7H7.8L5.7,6.3H21.3Z" fill="#56CCF2" fill-rule="evenodd" />
  <path d="M19.2,14.7V15.3C19.334,15.3 19.464,15.255 19.569,15.173C19.675,15.091 19.75,14.976 19.782,14.846L19.2,14.7ZM21.3,6.3L21.882,6.446C21.904,6.357 21.906,6.265 21.887,6.176C21.868,6.087 21.829,6.003 21.773,5.931C21.717,5.859 21.645,5.801 21.563,5.761C21.481,5.721 21.391,5.7 21.3,5.7V6.3ZM7.8,14.7L7.218,14.846C7.25,14.976 7.325,15.091 7.431,15.173C7.536,15.255 7.666,15.3 7.8,15.3V14.7ZM5.7,6.3V5.7C5.609,5.7 5.519,5.721 5.437,5.761C5.355,5.801 5.283,5.859 5.227,5.931C5.171,6.003 5.132,6.087 5.113,6.176C5.094,6.265 5.096,6.357 5.118,6.446L5.7,6.3ZM19.782,14.846L21.882,6.446L20.718,6.155L18.618,14.555L19.782,14.846ZM7.8,15.3H19.2V14.1H7.8V15.3ZM5.118,6.446L7.218,14.846L8.382,14.555L6.282,6.155L5.118,6.446ZM21.3,5.7H5.7V6.9H21.3V5.7Z" fill="#56CCF2" />
  <path d="M8.103,18.386C8.142,18.541 8.24,18.673 8.376,18.755C8.513,18.837 8.676,18.861 8.831,18.823C8.985,18.784 9.118,18.686 9.2,18.549C9.282,18.413 9.306,18.25 9.267,18.095L8.103,18.386ZM5.1,3.9L5.682,3.754C5.65,3.625 5.575,3.509 5.469,3.427C5.364,3.345 5.234,3.3 5.1,3.3V3.9ZM2.7,3.3C2.541,3.3 2.388,3.363 2.276,3.476C2.163,3.588 2.1,3.741 2.1,3.9C2.1,4.059 2.163,4.212 2.276,4.324C2.388,4.437 2.541,4.5 2.7,4.5V3.3ZM9.126,17.7C8.967,17.7 8.814,17.763 8.702,17.875C8.589,17.988 8.526,18.141 8.526,18.3C8.526,18.459 8.589,18.611 8.702,18.724C8.814,18.837 8.967,18.9 9.126,18.9V17.7ZM18.174,18.9C18.333,18.9 18.486,18.837 18.599,18.724C18.711,18.611 18.774,18.459 18.774,18.3C18.774,18.141 18.711,17.988 18.599,17.875C18.486,17.763 18.333,17.7 18.174,17.7V18.9ZM9.267,18.095L5.682,3.754L4.518,4.045L8.103,18.386L9.267,18.095ZM5.1,3.3H2.7V4.5H5.1V3.3ZM9.126,18.9H18.174V17.7H9.126V18.9Z" fill="#9B51E0" />
  <path d="M7.921,18.449C8.098,18.347 8.294,18.28 8.497,18.254C8.7,18.227 8.906,18.24 9.104,18.293C9.301,18.346 9.487,18.438 9.649,18.562C9.812,18.687 9.948,18.842 10.05,19.02C10.153,19.197 10.219,19.393 10.246,19.596C10.272,19.799 10.259,20.005 10.206,20.202C10.153,20.4 10.061,20.586 9.937,20.748C9.812,20.91 9.657,21.047 9.48,21.149C9.122,21.356 8.696,21.412 8.297,21.305C7.897,21.198 7.557,20.937 7.35,20.579C7.143,20.22 7.087,19.795 7.194,19.396C7.301,18.996 7.563,18.656 7.921,18.449ZM17.821,18.449C17.998,18.347 18.194,18.28 18.397,18.254C18.6,18.227 18.806,18.24 19.004,18.293C19.201,18.346 19.387,18.438 19.549,18.562C19.712,18.687 19.848,18.842 19.95,19.02C20.052,19.197 20.119,19.393 20.146,19.596C20.172,19.799 20.159,20.005 20.106,20.202C20.053,20.4 19.962,20.586 19.837,20.748C19.712,20.91 19.557,21.047 19.38,21.149C19.022,21.356 18.596,21.412 18.197,21.305C17.797,21.198 17.457,20.937 17.25,20.579C17.044,20.22 16.987,19.795 17.094,19.396C17.201,18.996 17.463,18.656 17.821,18.449Z" fill="#2F80ED" stroke="#2F80ED" stroke-width="1" />
</svg>