<svg width="24" height="24" viewBox="0 0 24 24" xmlns="http://www.w3.org/2000/svg">
  <path d="M3.358,9.951C5.581,9.966 7.713,10.836 9.312,12.381C10.91,13.927 11.852,16.028 11.942,18.249C9.719,18.234 7.587,17.364 5.989,15.819C4.39,14.274 3.448,12.172 3.358,9.951Z" fill="#2F80ED" fill-rule="evenodd" />
  <path d="M20.642,9.951C18.419,9.966 16.287,10.836 14.689,12.381C13.09,13.927 12.148,16.028 12.058,18.249C14.281,18.234 16.413,17.364 18.012,15.819C19.61,14.274 20.552,12.172 20.642,9.951Z" fill="#56CCF2" fill-rule="evenodd" />
  <path d="M8.261,11.515C9.352,12.279 10.251,13.284 10.89,14.452C11.528,15.62 11.888,16.919 11.942,18.249L12.051,18.25C12.783,18.25 13.503,18.157 14.198,17.979L14.21,17.963C13.514,18.147 12.792,18.245 12.058,18.25C12.112,16.92 12.472,15.62 13.111,14.452C13.749,13.284 14.648,12.279 15.739,11.516C15.549,10.341 15.119,9.219 14.476,8.218C13.832,7.218 12.99,6.36 12,5.7C11.01,6.36 10.168,7.217 9.524,8.218C8.881,9.219 8.451,10.341 8.261,11.515Z" fill="#9B51E0" fill-rule="evenodd" />
</svg>