<svg width="24" height="24" viewBox="0 0 24 24" xmlns="http://www.w3.org/2000/svg">
  <g>
  <path d="M10.667,1.333C10.667,1.333 10.667,0 12,0C13.333,0 13.333,1.333 13.333,1.333V2.667C13.333,2.667 13.333,4 12,4C10.667,4 10.667,2.667 10.667,2.667V1.333ZM22.667,10.667C22.667,10.667 24,10.667 24,12C24,13.333 22.667,13.333 22.667,13.333H21.333C21.333,13.333 20,13.333 20,12C20,10.667 21.333,10.667 21.333,10.667H22.667ZM2.667,10.667C2.667,10.667 4,10.667 4,12C4,13.333 2.667,13.333 2.667,13.333H1.333C1.333,13.333 0,13.333 0,12C0,10.667 1.333,10.667 1.333,10.667H2.667ZM6.081,4.862C6.081,4.862 7.023,5.805 6.081,6.747C5.138,7.69 4.195,6.747 4.195,6.747L3.252,5.805C3.252,5.805 2.309,4.863 3.252,3.919C4.195,2.977 5.138,3.919 5.138,3.919L6.081,4.862ZM19.805,6.747C19.805,6.747 18.863,7.69 17.92,6.747C16.977,5.805 17.92,4.862 17.92,4.862L18.863,3.919C18.863,3.919 19.805,2.977 20.748,3.919C21.691,4.862 20.748,5.805 20.748,5.805L19.805,6.747ZM5.805,20.747C5.805,20.747 4.863,21.69 3.92,20.747C2.977,19.805 3.92,18.862 3.92,18.862L4.863,17.919C4.863,17.919 5.805,16.977 6.748,17.919C7.691,18.862 6.748,19.805 6.748,19.805L5.805,20.747Z" fill="#FFAC33" />
  <path d="M12,18.666C15.682,18.666 18.667,15.682 18.667,12C18.667,8.318 15.682,5.333 12,5.333C8.318,5.333 5.333,8.318 5.333,12C5.333,15.682 8.318,18.666 12,18.666Z" fill="#FFAC33" />
  <path d="M19.851,15.466C19.423,15.466 19.011,15.533 18.623,15.656C18.164,14.304 16.916,13.333 15.445,13.333C13.866,13.333 12.545,14.452 12.179,15.958C11.78,15.642 11.287,15.469 10.778,15.467C9.489,15.467 8.445,16.541 8.445,17.867C8.445,18.189 8.509,18.494 8.621,18.776C8.395,18.706 8.162,18.669 7.926,18.666C6.494,18.666 5.333,19.86 5.333,21.333C5.333,22.806 6.494,24 7.926,24H19.852C22.143,24 24,22.09 24,19.733C24,17.376 22.143,15.466 19.851,15.466Z" fill="#E1E8ED" />
  </g>
</svg>